<svg width="40" height="40" viewBox="0 0 40 40" fill="none" xmlns="http://www.w3.org/2000/svg">
<path d="M8 0.5H32C36.1421 0.5 39.5 3.85786 39.5 8V32C39.5 36.1421 36.1421 39.5 32 39.5H8C3.85786 39.5 0.5 36.1421 0.5 32V8C0.5 3.85786 3.85786 0.5 8 0.5Z" fill="#FFEFF0"/>
<path d="M8 0.5H32C36.1421 0.5 39.5 3.85786 39.5 8V32C39.5 36.1421 36.1421 39.5 32 39.5H8C3.85786 39.5 0.5 36.1421 0.5 32V8C0.5 3.85786 3.85786 0.5 8 0.5Z" stroke="#FF9AA0"/>
<path d="M26.25 14.583L25.7336 22.9373C25.6016 25.0717 25.5357 26.1389 25.0007 26.9063C24.7361 27.2856 24.3956 27.6058 24.0006 27.8463C23.2017 28.333 22.1325 28.333 19.9939 28.333C17.8526 28.333 16.7819 28.333 15.9825 27.8454C15.5873 27.6044 15.2467 27.2837 14.9822 26.9037C14.4474 26.1352 14.3829 25.0664 14.2538 22.929L13.75 14.583" stroke="#EB1C24" stroke-width="1.25" stroke-linecap="round"/>
<path d="M12.5 14.5837H27.5M23.3797 14.5837L22.8109 13.4101C22.433 12.6305 22.244 12.2408 21.9181 11.9977C21.8458 11.9437 21.7693 11.8958 21.6892 11.8542C21.3283 11.667 20.8951 11.667 20.0287 11.667C19.1407 11.667 18.6967 11.667 18.3297 11.8621C18.2484 11.9053 18.1708 11.9552 18.0977 12.0113C17.768 12.2642 17.5839 12.6683 17.2155 13.4764L16.7108 14.5837" stroke="#EB1C24" stroke-width="1.25" stroke-linecap="round"/>
<path d="M17.916 23.75V18.75" stroke="#EB1C24" stroke-width="1.25" stroke-linecap="round"/>
<path d="M22.084 23.75V18.75" stroke="#EB1C24" stroke-width="1.25" stroke-linecap="round"/>
</svg>
