<svg width="18" height="18" viewBox="0 0 18 18" fill="none" xmlns="http://www.w3.org/2000/svg">
<path d="M14.3125 4.39551L13.8735 11.4966C13.7613 13.3109 13.7053 14.218 13.2506 14.8703C13.0257 15.1927 12.7362 15.4648 12.4005 15.6693C11.7215 16.083 10.8126 16.083 8.99483 16.083C7.17471 16.083 6.26463 16.083 5.58516 15.6686C5.24923 15.4637 4.95967 15.1911 4.7349 14.8681C4.28029 14.2148 4.22544 13.3064 4.11577 11.4896L3.6875 4.39551" stroke="#EB1C24" stroke-width="1.0625" stroke-linecap="round"/>
<path d="M2.625 4.39616H15.375M11.8728 4.39616L11.3893 3.39863C11.068 2.73601 10.9074 2.40469 10.6304 2.19807C10.569 2.15223 10.5039 2.11146 10.4358 2.07615C10.129 1.91699 9.76082 1.91699 9.02444 1.91699C8.26957 1.91699 7.89217 1.91699 7.58027 2.08283C7.51115 2.11958 7.44519 2.162 7.38308 2.20965C7.10283 2.42465 6.94628 2.76809 6.63318 3.45497L6.20415 4.39616" stroke="#EB1C24" stroke-width="1.0625" stroke-linecap="round"/>
<path d="M7.22852 12.1875V7.9375" stroke="#EB1C24" stroke-width="1.0625" stroke-linecap="round"/>
<path d="M10.7715 12.1875V7.9375" stroke="#EB1C24" stroke-width="1.0625" stroke-linecap="round"/>
</svg>
