<svg width="24" height="24" viewBox="0 0 24 24" fill="none" xmlns="http://www.w3.org/2000/svg">
<path d="M20.4999 10.5V10C20.4999 6.22876 20.4999 4.34315 19.3284 3.17157C18.1568 2 16.2712 2 12.4999 2H11.5C7.72883 2 5.84323 2 4.67166 3.17156C3.50009 4.34312 3.50007 6.22872 3.50004 9.99993L3.5 14.5C3.49997 17.7874 3.49996 19.4312 4.40788 20.5375C4.57412 20.7401 4.75986 20.9258 4.96242 21.0921C6.06877 22 7.71249 22 10.9999 22" stroke="#808080" stroke-width="1.5" stroke-linecap="round" stroke-linejoin="round"/>
<path d="M7.5 7H16.5" stroke="#808080" stroke-width="1.5" stroke-linecap="round" stroke-linejoin="round"/>
<path d="M7.5 12H13.5" stroke="#808080" stroke-width="1.5" stroke-linecap="round" stroke-linejoin="round"/>
<path d="M21.3166 19.0165C21.7249 18.8287 21.929 18.7348 21.9885 18.6418C22.0481 18.5489 22.0481 18.4008 22.0481 18.1045V17.8954C22.0481 17.5992 22.0481 17.451 21.9885 17.358C21.929 17.2651 21.7248 17.1712 21.3166 16.9835C20.7112 16.7051 20.3224 16.0959 20.3432 15.4585C20.3591 14.9714 20.3671 14.7278 20.3143 14.6352C20.2614 14.5426 20.1335 14.4726 19.8777 14.3324L19.6344 14.1991C19.3864 14.0632 19.2623 13.9953 19.1564 14.0003C19.0505 14.0053 18.8703 14.1274 18.5101 14.3716C17.9241 14.7687 17.1247 14.7687 16.5388 14.3716C16.1785 14.1274 15.9983 14.0053 15.8924 14.0003C15.7865 13.9953 15.6625 14.0632 15.4144 14.1991L15.1712 14.3323C14.9154 14.4725 14.7875 14.5426 14.7346 14.6351C14.6818 14.7277 14.6897 14.9713 14.7055 15.4584C14.7262 16.0959 14.3371 16.7051 13.7316 16.9835C13.3233 17.1711 13.1192 17.265 13.0596 17.358C13 17.4509 13 17.5991 13 17.8954V18.1045C13 18.4008 13 18.5489 13.0596 18.6419C13.1192 18.7349 13.3233 18.8287 13.7316 19.0165C14.3369 19.2949 14.7257 19.904 14.7049 20.5415C14.689 21.0286 14.681 21.2721 14.7338 21.3647C14.7867 21.4573 14.9146 21.5273 15.1704 21.6675L15.4137 21.8008C15.6618 21.9367 15.7858 22.0046 15.8918 21.9997C15.9977 21.9946 16.1778 21.8725 16.538 21.6282C17.1244 21.2306 17.9245 21.2306 18.5108 21.6282C18.871 21.8725 19.0512 21.9946 19.1571 21.9996C19.263 22.0046 19.3871 21.9367 19.6351 21.8007L19.8784 21.6675C20.1343 21.5273 20.2622 21.4572 20.315 21.3646C20.3679 21.272 20.3599 21.0285 20.3438 20.5415C20.3229 19.904 20.7114 19.2949 21.3166 19.0165Z" stroke="#808080" stroke-width="1.5" stroke-linecap="round"/>
<path d="M17.5226 19.3197C18.2514 19.3197 18.8422 18.7289 18.8422 18.0002C18.8422 17.2714 18.2514 16.6807 17.5226 16.6807C16.7939 16.6807 16.2031 17.2714 16.2031 18.0002C16.2031 18.7289 16.7939 19.3197 17.5226 19.3197Z" stroke="#808080" stroke-width="1.5"/>
</svg>
