<svg width="40" height="40" viewBox="0 0 40 40" fill="none" xmlns="http://www.w3.org/2000/svg">
<path d="M8 0.5H32C36.1421 0.5 39.5 3.85786 39.5 8V32C39.5 36.1421 36.1421 39.5 32 39.5H8C3.85786 39.5 0.5 36.1421 0.5 32V8C0.5 3.85786 3.85786 0.5 8 0.5Z" fill="#FFEFF0"/>
<path d="M8 0.5H32C36.1421 0.5 39.5 3.85786 39.5 8V32C39.5 36.1421 36.1421 39.5 32 39.5H8C3.85786 39.5 0.5 36.1421 0.5 32V8C0.5 3.85786 3.85786 0.5 8 0.5Z" stroke="#FF9AA0"/>
<path d="M13.1515 23.591L12.5 27.5L16.409 26.8485C17.0879 26.7354 17.7144 26.413 18.201 25.9263L27.0165 17.1107C27.6612 16.466 27.6612 15.4207 27.0164 14.776L25.2239 12.9835C24.5792 12.3388 23.5338 12.3388 22.8891 12.9836L14.0737 21.7992C13.5871 22.2857 13.2646 22.9122 13.1515 23.591Z" stroke="#EB1C24" stroke-width="1.5" stroke-linecap="round" stroke-linejoin="round"/>
<path d="M21.666 15L24.9993 18.3333" stroke="#EB1C24" stroke-width="1.5" stroke-linecap="round" stroke-linejoin="round"/>
</svg>
