<svg width="34" height="34" viewBox="0 0 34 34" fill="none" xmlns="http://www.w3.org/2000/svg">
<path d="M6.7998 0.424805H26C30.1836 0.424805 33.5752 3.81644 33.5752 8V27.2002C33.5751 30.7209 30.7209 33.5751 27.2002 33.5752H6.7998C3.27914 33.5751 0.42491 30.7209 0.424805 27.2002V6.7998C0.42491 3.27914 3.27914 0.42491 6.7998 0.424805Z" fill="#FFEFF0"/>
<path d="M6.7998 0.424805H26C30.1836 0.424805 33.5752 3.81644 33.5752 8V27.2002C33.5751 30.7209 30.7209 33.5751 27.2002 33.5752H6.7998C3.27914 33.5751 0.42491 30.7209 0.424805 27.2002V6.7998C0.42491 3.27914 3.27914 0.42491 6.7998 0.424805Z" stroke="#FF9AA0" stroke-width="0.85"/>
<path d="M11.1788 20.0523L10.625 23.375L13.9477 22.8212C14.5247 22.7251 15.0572 22.451 15.4708 22.0374L22.964 14.5441C23.512 13.9961 23.512 13.1076 22.964 12.5596L21.4403 11.036C20.8923 10.488 20.0038 10.488 19.4557 11.036L11.9626 18.5293C11.549 18.9429 11.2749 19.4754 11.1788 20.0523Z" stroke="#EB1C24" stroke-width="1.275" stroke-linecap="round" stroke-linejoin="round"/>
<path d="M18.416 12.75L21.2493 15.5833" stroke="#EB1C24" stroke-width="1.275" stroke-linecap="round" stroke-linejoin="round"/>
</svg>
