<svg width="30" height="25" viewBox="0 0 30 25" fill="none" xmlns="http://www.w3.org/2000/svg">
<path d="M25.6809 20.5809C26.922 19.9043 27.9025 18.8336 28.4675 17.5378C29.0326 16.2421 29.15 14.7951 28.8014 13.4252C28.4527 12.0552 27.6577 10.8404 26.542 9.97251C25.4262 9.10457 24.0532 8.63291 22.6396 8.63198H21.0362C20.651 7.14217 19.9331 5.75906 18.9365 4.58663C17.9398 3.41421 16.6904 2.48298 15.282 1.86296C13.8737 1.24293 12.3431 0.950246 10.8053 1.0069C9.26756 1.06356 7.76266 1.46809 6.40375 2.19007C5.04485 2.91205 3.86729 3.9327 2.95962 5.17529C2.05194 6.41787 1.43777 7.85006 1.16328 9.36418C0.888783 10.8783 0.961107 12.4349 1.37481 13.9171C1.78852 15.3992 2.53284 16.7683 3.55182 17.9214" stroke="#FF9AA0" stroke-width="2" stroke-linecap="round" stroke-linejoin="round"/>
<path d="M9.91459 18.8123L15.0047 23.9023L20.0947 18.8123" stroke="#FF9AA0" stroke-width="2" stroke-linecap="round" stroke-linejoin="round"/>
<path d="M15.0039 23.9023L15.0039 12.4497" stroke="#FF9AA0" stroke-width="2" stroke-linecap="round" stroke-linejoin="round"/>
</svg>
