<svg width="18" height="18" viewBox="0 0 18 18" fill="none" xmlns="http://www.w3.org/2000/svg">
<path d="M3.61017 3.33427C3.33203 3.76997 3.33203 4.33358 3.33203 5.46081V12.5399C3.33203 13.667 3.33203 14.2307 3.61017 14.6664C3.65984 14.7442 3.71552 14.818 3.7767 14.8871C4.1193 15.2742 4.66133 15.429 5.74539 15.7387C6.83219 16.0492 7.37559 16.2044 7.76903 15.9715C7.83731 15.9312 7.90078 15.8833 7.95837 15.8288C8.29036 15.5145 8.29036 14.9495 8.29036 13.8194V4.18126C8.29036 3.05119 8.29036 2.48614 7.95837 2.17186C7.90078 2.11736 7.83731 2.06947 7.76903 2.0291C7.37559 1.79626 6.83219 1.95149 5.74539 2.26194C4.66133 2.57162 4.1193 2.72646 3.7767 3.11354C3.71552 3.18267 3.65984 3.25647 3.61017 3.33427Z" stroke="#EB1C24" stroke-width="1.0625" stroke-linecap="round" stroke-linejoin="round"/>
<path d="M8.28906 3.33301H9.71784C11.0649 3.33301 11.7384 3.33301 12.1568 3.74794C12.3902 3.97928 12.4934 4.28922 12.5391 4.74967M8.28906 14.6663H9.71784C11.0649 14.6663 11.7384 14.6663 12.1568 14.2514C12.3902 14.0201 12.4934 13.7102 12.5391 13.2497" stroke="#EB1C24" stroke-width="1.0625" stroke-linecap="round" stroke-linejoin="round"/>
<path d="M15.3724 9.00037H10.4141M14.3099 7.22949C14.3099 7.22949 16.0807 8.53372 16.0807 9.00037C16.0807 9.46702 14.3099 10.7711 14.3099 10.7711" stroke="#EB1C24" stroke-width="1.0625" stroke-linecap="round" stroke-linejoin="round"/>
</svg>
