<svg width="30" height="30" viewBox="0 0 30 30" fill="none" xmlns="http://www.w3.org/2000/svg">
<path d="M15 27.5C21.9036 27.5 27.5 21.9036 27.5 15C27.5 8.09644 21.9036 2.5 15 2.5C8.09644 2.5 2.5 8.09644 2.5 15C2.5 21.9036 8.09644 27.5 15 27.5Z" stroke="#808080" stroke-width="1.5" stroke-linecap="round" stroke-linejoin="round"/>
<path d="M9 14.9946H17.1228ZM17.1228 14.9946C17.1228 15.7516 14.5748 17.6727 14.5748 17.6727ZM17.1228 14.9946C17.1228 14.2179 14.5748 12.3472 14.5748 12.3472ZM20 11V19Z" fill="#FFCE2E"/>
<path d="M9 14.9946H17.1228M17.1228 14.9946C17.1228 15.7516 14.5748 17.6727 14.5748 17.6727M17.1228 14.9946C17.1228 14.2179 14.5748 12.3472 14.5748 12.3472M20 11V19" stroke="#808080" stroke-width="1.5" stroke-linecap="round"/>
</svg>
