<svg width="34" height="34" viewBox="0 0 34 34" fill="none" xmlns="http://www.w3.org/2000/svg">
<path d="M6.7998 0.424805H26C30.1836 0.424805 33.5752 3.81644 33.5752 8V27.2002C33.5751 30.7209 30.7209 33.5751 27.2002 33.5752H6.7998C3.27914 33.5751 0.42491 30.7209 0.424805 27.2002V6.7998C0.42491 3.27914 3.27914 0.42491 6.7998 0.424805Z" fill="#EB1C24"/>
<path d="M6.7998 0.424805H26C30.1836 0.424805 33.5752 3.81644 33.5752 8V27.2002C33.5751 30.7209 30.7209 33.5751 27.2002 33.5752H6.7998C3.27914 33.5751 0.42491 30.7209 0.424805 27.2002V6.7998C0.42491 3.27914 3.27914 0.42491 6.7998 0.424805Z" stroke="#EB1C24" stroke-width="0.85"/>
<path d="M11.6102 11.3343C11.332 11.77 11.332 12.3336 11.332 13.4608V20.5399C11.332 21.667 11.332 22.2307 11.6102 22.6664C11.6598 22.7442 11.7155 22.818 11.7767 22.8871C12.1193 23.2742 12.6613 23.429 13.7454 23.7387C14.8322 24.0492 15.3756 24.2044 15.769 23.9715C15.8373 23.9312 15.9008 23.8833 15.9584 23.8288C16.2904 23.5145 16.2904 22.9495 16.2904 21.8194V12.1813C16.2904 11.0512 16.2904 10.4861 15.9584 10.1719C15.9008 10.1174 15.8373 10.0695 15.769 10.0291C15.3756 9.79626 14.8322 9.95149 13.7454 10.2619C12.6613 10.5716 12.1193 10.7265 11.7767 11.1135C11.7155 11.1827 11.6598 11.2565 11.6102 11.3343Z" stroke="white" stroke-width="1.0625" stroke-linecap="round" stroke-linejoin="round"/>
<path d="M16.2891 11.333H17.7178C19.0649 11.333 19.7384 11.333 20.1568 11.7479C20.3902 11.9793 20.4934 12.2892 20.5391 12.7497M16.2891 22.6663H17.7178C19.0649 22.6663 19.7384 22.6663 20.1568 22.2514C20.3902 22.0201 20.4934 21.7102 20.5391 21.2497" stroke="white" stroke-width="1.0625" stroke-linecap="round" stroke-linejoin="round"/>
<path d="M23.3724 17.0004H18.4141M22.3099 15.2295C22.3099 15.2295 24.0807 16.5337 24.0807 17.0004C24.0807 17.467 22.3099 18.7711 22.3099 18.7711" stroke="white" stroke-width="1.0625" stroke-linecap="round" stroke-linejoin="round"/>
</svg>
