<svg width="151" height="42" viewBox="0 0 151 42" fill="none" xmlns="http://www.w3.org/2000/svg">
<path d="M26.9444 10.9029C27.888 10.9029 28.3598 10.1181 28.3598 8.54862C28.3742 8.03211 28.3346 7.5155 28.2416 7.00723C28.2205 6.86611 28.1712 6.73066 28.0969 6.60888C28.0225 6.4871 27.9245 6.38144 27.8087 6.29815C27.5309 6.15147 27.2183 6.08374 26.9047 6.10231H25.3324V10.9012L26.9444 10.9029ZM18.4512 1.30593H28.8324C30.1655 1.22949 31.4933 1.52744 32.6659 2.1661C33.5532 2.7168 34.2049 3.57698 34.4949 4.58033C34.8418 5.87329 35.0007 7.2095 34.9667 8.54777C35.0304 9.74099 34.7721 10.9294 34.2189 11.9885C33.9211 12.4322 33.5385 12.8127 33.0931 13.108C32.6477 13.4032 32.1482 13.6074 31.6236 13.7088C32.0537 13.7471 32.4718 13.8709 32.8534 14.073C33.235 14.275 33.5724 14.5513 33.8458 14.8855C34.3401 15.6344 34.5812 16.522 34.5337 17.418L34.4552 27.226H27.8483V17.0896C27.8483 16.3653 27.6649 15.9027 27.298 15.7018C26.6602 15.4538 25.9752 15.3508 25.2927 15.4005V27.2302H18.4512V1.30593Z" fill="#EB1C24"/>
<path d="M56.7971 20.7411V17.5122C56.8406 16.8828 56.674 16.2566 56.3236 15.732C56.1108 15.5103 55.8499 15.3405 55.561 15.2359C55.272 15.1312 54.9629 15.0944 54.6575 15.1284H53.3409V22.6412L54.0406 22.6716C55.8777 22.6716 56.7965 22.0278 56.7971 20.7402V20.7411ZM54.7808 11.0512C55.0118 11.0796 55.2462 11.0488 55.4621 10.9617C55.6779 10.8745 55.8681 10.734 56.0147 10.5532C56.2581 10.127 56.3725 9.63932 56.3439 9.14938V6.55703C56.3439 5.7129 55.8375 5.29083 54.8247 5.29083H53.3409V11.0512H54.7808ZM46.4302 1.30566H56.013C58.5906 1.30566 60.4623 1.76825 61.6282 2.69342C62.794 3.6186 63.3767 5.12763 63.3761 7.22053V8.36771C63.4762 9.43452 63.1526 10.4979 62.4753 11.3281C61.7979 12.1582 60.8212 12.6886 59.7562 12.8045C60.389 12.8811 60.997 13.0966 61.5369 13.4356C62.0767 13.7746 62.535 14.2287 62.879 14.7654C63.5359 16.0196 63.8478 17.4257 63.7829 18.8401C63.7829 21.5976 63.2203 23.6851 62.0949 25.1027C60.9696 26.5203 58.9423 27.2291 56.013 27.2291H46.4302V1.30566Z" fill="#EB1C24"/>
<path d="M4.37026 27.2298V6.28509H0V1.30469H16.1095V6.28509H11.7393V27.2298H4.37026Z" fill="#EB1C24"/>
<path d="M66.2637 27.2299V1.30566H78.8613V6.31561H72.6722V11.3551H78.6047V16.2443H72.6722V22.1938H79.2639V27.2342L66.2637 27.2299Z" fill="#EB1C24"/>
<path d="M43.7991 1.30566H37.4834V27.2299H43.7991V1.30566Z" fill="#EB1C24"/>
<path d="M87.8782 25.737C86.5841 24.5405 85.937 22.7152 85.937 20.2611V17.5429H92.4975V20.2568C92.4636 20.8873 92.5917 21.5159 92.8697 22.0827C93.035 22.3162 93.261 22.5002 93.5233 22.6146C93.7855 22.729 94.074 22.7695 94.3577 22.7318C94.5703 22.7517 94.7846 22.7211 94.9832 22.6425C95.1818 22.5639 95.359 22.4395 95.5004 22.2794C95.7397 21.9686 95.8881 21.5975 95.9292 21.2073C95.9871 20.6107 96.0119 20.0113 96.0035 19.4119V18.7804C96.0035 16.5474 95.0962 15.4309 93.2815 15.4309C93.0698 15.4245 92.8579 15.4344 92.6477 15.4605V10.8126C93.5483 10.8758 94.4465 10.6601 95.2202 10.1947C95.5156 9.96192 95.7485 9.65942 95.8982 9.31438C96.0479 8.96933 96.1096 8.59253 96.0777 8.21777C96.0777 6.74953 95.5559 6.01541 94.5121 6.01541C93.8656 6.01541 93.4492 6.14626 93.263 6.40794C93.0626 6.70622 92.9351 7.04741 92.8908 7.40402C92.8283 7.80639 92.7847 8.09818 92.76 8.27939V9.06443H86.1278L86.0906 8.16036C86.1148 5.78553 86.8106 4.04098 88.1778 2.92672C89.5451 1.81246 91.6453 1.2542 94.4783 1.25195C99.9205 1.25195 102.642 3.55588 102.642 8.16374C102.694 9.27479 102.463 10.3809 101.971 11.3782C101.716 11.7968 101.38 12.1605 100.984 12.448C100.587 12.7356 100.137 12.9412 99.6597 13.053C100.426 13.3271 101.112 13.7888 101.654 14.396C102.103 14.9603 102.398 15.6307 102.512 16.3426C102.666 17.3612 102.735 18.391 102.717 19.4211C102.717 22.0971 102.027 24.119 100.647 25.4871C99.2675 26.8552 97.0621 27.5392 94.031 27.5392C91.2227 27.5392 89.1724 26.9404 87.8799 25.7429" fill="black"/>
<path d="M115.046 22.0541C115.271 21.3688 115.366 20.6477 115.326 19.9277V17.8444C115.326 16.4375 114.829 15.734 113.833 15.734C112.712 15.734 112.152 16.3477 112.152 17.5751V20.7743C112.152 22.0619 112.687 22.7057 113.756 22.7057C114.431 22.7057 114.861 22.4894 115.045 22.0566L115.046 22.0541ZM108.787 26.5685C107.582 26.0312 106.623 25.062 106.097 23.8521C105.522 22.3506 105.256 20.7486 105.313 19.1418V12.1405C105.255 10.0156 105.462 7.89171 105.929 5.81794C106.283 4.35951 107.186 3.09427 108.451 2.28692C109.722 1.47205 111.628 1.06461 114.169 1.06461C115.474 1.05125 116.773 1.245 118.017 1.63862C119.085 1.9571 120.052 2.54995 120.819 3.35813C121.513 4.11409 121.888 5.10928 121.865 6.13534V8.94209H115.664V8.40184C115.692 7.70665 115.597 7.01195 115.384 6.34975C115.272 6.10021 115.081 5.89414 114.841 5.76293C114.601 5.63172 114.325 5.58256 114.055 5.62295C113.791 5.59573 113.524 5.62183 113.271 5.6997C113.017 5.77758 112.782 5.90563 112.579 6.07625C112.263 6.46647 112.109 6.96341 112.15 7.46401V12.685C112.482 12.1737 112.965 11.7782 113.532 11.553C114.231 11.2668 114.982 11.1282 115.737 11.1461C117.138 11.07 118.534 11.361 119.788 11.9903C120.742 12.548 121.455 13.4411 121.787 14.4957C122.203 15.9054 122.392 17.3722 122.348 18.8413C122.348 21.5988 121.701 23.7266 120.407 25.2246C119.112 26.7227 116.971 27.472 113.981 27.4726C112.205 27.5504 110.434 27.242 108.789 26.5685" fill="black"/>
<path d="M126.909 26.0689C126.172 25.5787 125.575 24.9046 125.179 24.1133C124.782 23.322 124.599 22.4409 124.647 21.557V17.7246H131.283V19.9278C131.252 20.6379 131.365 21.3469 131.616 22.012C131.737 22.2654 131.934 22.4745 132.18 22.6099C132.426 22.7452 132.708 22.8001 132.987 22.7666C133.232 22.7968 133.48 22.7657 133.71 22.6761C133.939 22.5865 134.143 22.4413 134.303 22.2534C134.567 21.7966 134.69 21.2716 134.656 20.7449V15.6413C134.682 14.968 134.575 14.2963 134.341 13.6643C134.229 13.4173 134.04 13.2125 133.804 13.0797C133.567 12.9468 133.294 12.8929 133.025 12.9257C131.814 12.9257 131.208 13.6398 131.208 15.0681H125.389V1.27661H140.554V6.13546H131.432V9.78719C131.798 9.4158 132.241 9.12788 132.729 8.94306C133.32 8.7129 133.951 8.60022 134.586 8.61131C137.255 8.61131 139.078 9.37582 140.055 10.9048C141.032 12.4338 141.52 14.5968 141.52 17.3937C141.568 19.2889 141.363 21.1819 140.908 23.0224C140.535 24.4128 139.656 25.6132 138.442 26.3871C136.775 27.296 134.886 27.7145 132.991 27.5942C130.859 27.7021 128.743 27.1713 126.915 26.0697" fill="black"/>
<path d="M146.905 3.45078C147.052 3.45078 147.126 3.32894 147.126 3.08527C147.128 3.00493 147.122 2.92459 147.107 2.84554C147.1 2.8016 147.076 2.76217 147.04 2.7358C146.997 2.71312 146.948 2.70262 146.899 2.70541H146.655V3.44994L146.905 3.45078ZM145.584 1.95835H147.199C147.406 1.94652 147.613 1.99301 147.795 2.09257C147.933 2.17804 148.035 2.31197 148.079 2.46821C148.133 2.6693 148.158 2.87712 148.153 3.08527C148.163 3.27079 148.123 3.45559 148.037 3.62045C147.991 3.68913 147.931 3.74796 147.862 3.79359C147.793 3.83922 147.715 3.87074 147.634 3.88636C147.701 3.8925 147.765 3.91186 147.825 3.9433C147.884 3.97475 147.936 4.01766 147.979 4.06953C148.056 4.18613 148.093 4.32433 148.085 4.46375L148.073 5.9891H147.045V4.4131C147.045 4.29998 147.017 4.22823 146.961 4.197C146.862 4.15819 146.756 4.14204 146.65 4.14973V5.98994H145.586L145.584 1.95835Z" fill="#1C1C1C"/>
<path d="M146.868 0.562196C146.225 0.562196 145.597 0.752851 145.062 1.11005C144.528 1.46725 144.111 1.97495 143.865 2.56895C143.619 3.16295 143.555 3.81657 143.68 4.44716C143.806 5.07775 144.115 5.65698 144.57 6.11161C145.024 6.56623 145.603 6.87584 146.234 7.00127C146.864 7.1267 147.518 7.06233 148.112 6.81628C148.706 6.57024 149.213 6.15358 149.571 5.619C149.928 5.08441 150.118 4.45591 150.118 3.81296C150.118 2.95081 149.776 2.12396 149.166 1.51432C148.557 0.904687 147.73 0.562196 146.868 0.562196ZM146.868 7.62593C146.114 7.62593 145.377 7.4023 144.75 6.98333C144.123 6.56436 143.634 5.96885 143.346 5.27212C143.057 4.5754 142.982 3.80874 143.129 3.06909C143.276 2.32945 143.639 1.65005 144.172 1.11679C144.705 0.58354 145.385 0.220391 146.124 0.0732667C146.864 -0.0738573 147.63 0.0016521 148.327 0.290246C149.024 0.57884 149.619 1.06756 150.038 1.6946C150.457 2.32164 150.68 3.05883 150.68 3.81296C150.68 4.82423 150.279 5.79407 149.564 6.50914C148.849 7.22421 147.879 7.62593 146.868 7.62593Z" fill="#1C1C1C"/>
<path d="M141.251 41.4534H89.7479C89.7065 41.4534 89.6668 41.437 89.6375 41.4077C89.6082 41.3784 89.5918 41.3387 89.5918 41.2973C89.5918 41.2559 89.6082 41.2161 89.6375 41.1869C89.6668 41.1576 89.7065 41.1411 89.7479 41.1411H141.25C141.291 41.1411 141.331 41.1576 141.36 41.1869C141.39 41.2161 141.406 41.2559 141.406 41.2973C141.406 41.3387 141.39 41.3784 141.36 41.4077C141.331 41.437 141.291 41.4534 141.25 41.4534" fill="#EB1C24"/>
<path d="M8.21185 32.0209H8.3528C8.37193 32.0182 8.39143 32.02 8.40974 32.0262C8.42806 32.0323 8.4447 32.0426 8.45836 32.0563C8.47202 32.0699 8.48232 32.0866 8.48847 32.1049C8.49461 32.1232 8.49642 32.1427 8.49375 32.1618V41.7428C8.4966 41.762 8.49491 41.7815 8.48884 41.7999C8.48276 41.8183 8.47246 41.8351 8.45876 41.8488C8.44506 41.8625 8.42834 41.8728 8.40994 41.8789C8.39154 41.8849 8.37197 41.8866 8.3528 41.8838H8.21185C8.19269 41.8866 8.17312 41.8849 8.15472 41.8789C8.13632 41.8728 8.1196 41.8625 8.1059 41.8488C8.09219 41.8351 8.08189 41.8183 8.07582 41.7999C8.06974 41.7815 8.06806 41.762 8.0709 41.7428V37.1921C8.07204 37.1844 8.07136 37.1765 8.06892 37.1691C8.06648 37.1618 8.06235 37.155 8.05685 37.1495C8.05136 37.1441 8.04465 37.1399 8.03727 37.1375C8.02989 37.135 8.02204 37.1344 8.01435 37.1355H4.87381C4.86612 37.1344 4.85827 37.135 4.85089 37.1375C4.84351 37.1399 4.8368 37.1441 4.83131 37.1495C4.82581 37.155 4.82168 37.1618 4.81924 37.1691C4.8168 37.1765 4.81612 37.1844 4.81726 37.1921V41.7428C4.82011 41.762 4.81842 41.7815 4.81235 41.7999C4.80627 41.8183 4.79597 41.8351 4.78227 41.8488C4.76856 41.8625 4.75184 41.8728 4.73344 41.8789C4.71504 41.8849 4.69548 41.8866 4.67631 41.8838H4.53536C4.51619 41.8866 4.49663 41.8849 4.47823 41.8789C4.45983 41.8728 4.44311 41.8625 4.42941 41.8488C4.4157 41.8351 4.4054 41.8183 4.39932 41.7999C4.39325 41.7815 4.39157 41.762 4.39441 41.7428V32.1618C4.39157 32.1427 4.39325 32.1231 4.39932 32.1047C4.4054 32.0863 4.4157 32.0696 4.42941 32.0559C4.44311 32.0422 4.45983 32.0319 4.47823 32.0258C4.49663 32.0197 4.51619 32.018 4.53536 32.0209H4.67547C4.6946 32.0182 4.71409 32.02 4.73241 32.0262C4.75072 32.0323 4.76736 32.0426 4.78102 32.0563C4.79468 32.0699 4.80499 32.0866 4.81113 32.1049C4.81727 32.1232 4.81908 32.1427 4.81642 32.1618V36.6991C4.81528 36.7068 4.81596 36.7146 4.8184 36.722C4.82084 36.7294 4.82497 36.7361 4.83046 36.7416C4.83596 36.7471 4.84267 36.7512 4.85005 36.7537C4.85743 36.7561 4.86527 36.7568 4.87296 36.7556H8.01435C8.02204 36.7568 8.02989 36.7561 8.03727 36.7537C8.04465 36.7512 8.05136 36.7471 8.05685 36.7416C8.06235 36.7361 8.06648 36.7294 8.06892 36.722C8.07136 36.7146 8.07204 36.7068 8.0709 36.6991V32.1618C8.06806 32.1427 8.06974 32.1231 8.07582 32.1047C8.08189 32.0863 8.09219 32.0696 8.1059 32.0559C8.1196 32.0422 8.13632 32.0319 8.15472 32.0258C8.17312 32.0197 8.19269 32.018 8.21185 32.0209Z" fill="black"/>
<path d="M10.9735 41.7435V32.1667C10.9707 32.1476 10.9724 32.128 10.9784 32.1096C10.9845 32.0912 10.9948 32.0745 11.0085 32.0608C11.0222 32.0471 11.0389 32.0367 11.0573 32.0307C11.0757 32.0246 11.0953 32.0229 11.1145 32.0258H11.2554C11.2746 32.0229 11.2941 32.0246 11.3125 32.0307C11.3309 32.0367 11.3477 32.0471 11.3614 32.0608C11.3751 32.0745 11.3854 32.0912 11.3914 32.1096C11.3975 32.128 11.3992 32.1476 11.3964 32.1667V41.7477C11.3992 41.7668 11.3975 41.7864 11.3914 41.8048C11.3854 41.8232 11.3751 41.8399 11.3614 41.8536C11.3477 41.8674 11.3309 41.8777 11.3125 41.8837C11.2941 41.8898 11.2746 41.8915 11.2554 41.8886H11.1145C11.0953 41.8915 11.0757 41.8898 11.0573 41.8837C11.0389 41.8777 11.0222 41.8674 11.0085 41.8536C10.9948 41.8399 10.9845 41.8232 10.9784 41.8048C10.9724 41.7864 10.9707 41.7668 10.9735 41.7477" fill="black"/>
<path d="M14.1855 41.4041C13.985 41.1951 13.8293 40.9474 13.7277 40.6761C13.6261 40.4048 13.5809 40.1157 13.5947 39.8264V34.0795C13.5808 33.7901 13.6261 33.5008 13.7276 33.2294C13.8292 32.958 13.985 32.7102 14.1855 32.501C14.6139 32.1182 15.1686 31.9071 15.743 31.9082C16.3175 31.9093 16.8713 32.1225 17.2982 32.5069C17.4984 32.7177 17.6539 32.9668 17.7555 33.2392C17.857 33.5116 17.9024 33.8018 17.889 34.0922V34.7261C17.8919 34.7453 17.8902 34.7649 17.8841 34.7833C17.878 34.8017 17.8677 34.8184 17.854 34.8321C17.8403 34.8458 17.8236 34.8561 17.8052 34.8622C17.7868 34.8683 17.7673 34.8699 17.7481 34.8671H17.6071C17.588 34.8699 17.5684 34.8683 17.55 34.8622C17.5316 34.8561 17.5149 34.8458 17.5012 34.8321C17.4875 34.8184 17.4772 34.8017 17.4711 34.7833C17.465 34.7649 17.4633 34.7453 17.4662 34.7261V34.0652C17.4763 33.8312 17.4392 33.5975 17.357 33.3782C17.2747 33.1589 17.1491 32.9584 16.9876 32.7888C16.8231 32.6261 16.6268 32.499 16.4111 32.4154C16.1953 32.3317 15.9647 32.2933 15.7334 32.3026C15.5033 32.2928 15.2736 32.3309 15.059 32.4146C14.8444 32.4983 14.6496 32.6258 14.4869 32.7888C14.3272 32.9594 14.2032 33.1602 14.1222 33.3794C14.0411 33.5986 14.0047 33.8317 14.0151 34.0652V39.8407C14.0047 40.0742 14.0411 40.3073 14.1222 40.5265C14.2032 40.7457 14.3272 40.9465 14.4869 41.1171C14.6495 41.2802 14.8444 41.4077 15.059 41.4914C15.2736 41.5751 15.5033 41.6132 15.7334 41.6033C15.9647 41.6126 16.1953 41.5742 16.4111 41.4905C16.6268 41.4069 16.8231 41.2798 16.9876 41.1171C17.1492 40.9475 17.2749 40.7471 17.3571 40.5277C17.4393 40.3084 17.4764 40.0748 17.4662 39.8407V37.6004C17.4673 37.5927 17.4667 37.5849 17.4642 37.5775C17.4618 37.5701 17.4576 37.5634 17.4521 37.5579C17.4466 37.5524 17.4399 37.5483 17.4326 37.5458C17.4252 37.5434 17.4173 37.5427 17.4096 37.5438H15.9605C15.9413 37.5467 15.9218 37.545 15.9034 37.5389C15.885 37.5329 15.8682 37.5225 15.8545 37.5088C15.8408 37.4951 15.8305 37.4784 15.8245 37.46C15.8184 37.4416 15.8167 37.422 15.8195 37.4029V37.3041C15.8167 37.2849 15.8184 37.2653 15.8245 37.2469C15.8306 37.2285 15.8409 37.2117 15.8545 37.1979C15.8682 37.1842 15.8849 37.1738 15.9033 37.1676C15.9217 37.1614 15.9413 37.1596 15.9605 37.1623H17.7498C17.769 37.1596 17.7886 37.1614 17.807 37.1676C17.8253 37.1738 17.842 37.1842 17.8557 37.1979C17.8694 37.2117 17.8797 37.2285 17.8858 37.2469C17.8918 37.2653 17.8935 37.2849 17.8907 37.3041V39.8306C17.9104 40.1194 17.8682 40.4091 17.767 40.6803C17.6658 40.9515 17.5079 41.198 17.3039 41.4033C17.0999 41.6086 16.8544 41.7681 16.5839 41.871C16.3134 41.9739 16.024 42.0179 15.7351 42C15.4502 42.0122 15.1659 41.966 14.8994 41.8644C14.633 41.7628 14.3901 41.6079 14.1855 41.4091" fill="black"/>
<path d="M23.9052 32.0209H24.0462C24.0653 32.0182 24.0848 32.02 24.1031 32.0262C24.1214 32.0323 24.1381 32.0426 24.1517 32.0563C24.1654 32.0699 24.1757 32.0866 24.1818 32.1049C24.188 32.1232 24.1898 32.1427 24.1871 32.1618V41.7428C24.19 41.762 24.1883 41.7815 24.1822 41.7999C24.1761 41.8183 24.1658 41.8351 24.1521 41.8488C24.1384 41.8625 24.1217 41.8728 24.1033 41.8789C24.0849 41.8849 24.0653 41.8866 24.0462 41.8838H23.9052C23.886 41.8866 23.8665 41.8849 23.8481 41.8789C23.8297 41.8728 23.813 41.8625 23.7993 41.8488C23.7856 41.8351 23.7753 41.8183 23.7692 41.7999C23.7631 41.7815 23.7614 41.762 23.7643 41.7428V37.1921C23.7654 37.1844 23.7647 37.1765 23.7623 37.1691C23.7598 37.1618 23.7557 37.155 23.7502 37.1495C23.7447 37.1441 23.738 37.1399 23.7306 37.1375C23.7233 37.135 23.7154 37.1344 23.7077 37.1355H20.5672C20.5595 37.1344 20.5516 37.135 20.5442 37.1375C20.5369 37.1399 20.5302 37.1441 20.5247 37.1495C20.5192 37.155 20.515 37.1618 20.5126 37.1691C20.5102 37.1765 20.5095 37.1844 20.5106 37.1921V41.7428C20.5135 41.762 20.5118 41.7815 20.5057 41.7999C20.4996 41.8183 20.4893 41.8351 20.4756 41.8488C20.4619 41.8625 20.4452 41.8728 20.4268 41.8789C20.4084 41.8849 20.3888 41.8866 20.3697 41.8838H20.2287C20.2096 41.8866 20.19 41.8849 20.1716 41.8789C20.1532 41.8728 20.1365 41.8625 20.1228 41.8488C20.1091 41.8351 20.0988 41.8183 20.0927 41.7999C20.0866 41.7815 20.0849 41.762 20.0878 41.7428V32.1618C20.0849 32.1427 20.0866 32.1231 20.0927 32.1047C20.0988 32.0863 20.1091 32.0696 20.1228 32.0559C20.1365 32.0422 20.1532 32.0319 20.1716 32.0258C20.19 32.0197 20.2096 32.018 20.2287 32.0209H20.3697C20.3888 32.0182 20.4083 32.02 20.4266 32.0262C20.4449 32.0323 20.4616 32.0426 20.4752 32.0563C20.4889 32.0699 20.4992 32.0866 20.5053 32.1049C20.5115 32.1232 20.5133 32.1427 20.5106 32.1618V36.6991C20.5095 36.7068 20.5102 36.7146 20.5126 36.722C20.515 36.7294 20.5192 36.7361 20.5247 36.7416C20.5302 36.7471 20.5369 36.7512 20.5442 36.7537C20.5516 36.7561 20.5595 36.7568 20.5672 36.7556H23.7086C23.7162 36.7568 23.7241 36.7561 23.7315 36.7537C23.7389 36.7512 23.7456 36.7471 23.7511 36.7416C23.7566 36.7361 23.7607 36.7294 23.7631 36.722C23.7656 36.7146 23.7662 36.7068 23.7651 36.6991V32.1618C23.7623 32.1427 23.7639 32.1231 23.77 32.1047C23.7761 32.0863 23.7864 32.0696 23.8001 32.0559C23.8138 32.0422 23.8305 32.0319 23.8489 32.0258C23.8673 32.0197 23.8869 32.018 23.9061 32.0209" fill="black"/>
<path d="M32.8234 36.1704C33.1521 35.7096 33.3157 35.1513 33.2876 34.586C33.3155 34.0175 33.1521 33.456 32.8234 32.9914C32.6855 32.8001 32.5032 32.6451 32.2923 32.5397C32.0813 32.4343 31.848 32.3816 31.6122 32.3861H29.9639C29.9563 32.385 29.9485 32.3857 29.9412 32.3881C29.9339 32.3905 29.9273 32.3946 29.9218 32.4C29.9163 32.4054 29.9121 32.4119 29.9096 32.4192C29.9071 32.4265 29.9063 32.4342 29.9073 32.4419V36.7107C29.9062 36.7184 29.9069 36.7262 29.9093 36.7336C29.9118 36.741 29.9159 36.7477 29.9214 36.7532C29.9269 36.7587 29.9336 36.7628 29.941 36.7652C29.9483 36.7677 29.9562 36.7684 29.9639 36.7672H31.6114C31.8466 36.7722 32.0795 36.7203 32.2904 36.6159C32.5012 36.5116 32.6838 36.3579 32.8225 36.1679L32.8234 36.1704ZM33.1416 32.7019C33.5436 33.2442 33.7452 33.9091 33.7121 34.5834C33.7444 35.2501 33.5426 35.9071 33.1416 36.4405C32.9644 36.6675 32.7364 36.8496 32.4758 36.972C32.2152 37.0945 31.9295 37.1539 31.6418 37.1454H29.9639C29.9563 37.1443 29.9485 37.145 29.9412 37.1473C29.9339 37.1497 29.9273 37.1538 29.9218 37.1592C29.9163 37.1646 29.9121 37.1712 29.9096 37.1785C29.9071 37.1857 29.9063 37.1935 29.9073 37.2011V41.7383C29.9102 41.7574 29.9087 41.777 29.9027 41.7954C29.8968 41.8137 29.8867 41.8305 29.8732 41.8443C29.8597 41.8582 29.8432 41.8687 29.825 41.875C29.8067 41.8814 29.7872 41.8834 29.7681 41.881H29.6271C29.6079 41.8837 29.5883 41.8819 29.5699 41.8757C29.5516 41.8695 29.5349 41.8591 29.5212 41.8454C29.5075 41.8316 29.4972 41.8148 29.4911 41.7964C29.4851 41.778 29.4834 41.7584 29.4862 41.7392V32.1329C29.4835 32.1138 29.4853 32.0943 29.4914 32.076C29.4976 32.0577 29.5079 32.0411 29.5216 32.0275C29.5352 32.0139 29.5519 32.0037 29.5702 31.9977C29.5886 31.9916 29.608 31.99 29.6271 31.9928H31.6283C31.9188 31.9835 32.2074 32.043 32.4706 32.1665C32.7337 32.29 32.9639 32.4741 33.1424 32.7035" fill="black"/>
<path d="M39.4434 32.4158H36.0058C35.9981 32.4146 35.9902 32.4153 35.9829 32.4178C35.9755 32.4202 35.9688 32.4243 35.9633 32.4298C35.9578 32.4353 35.9536 32.442 35.9512 32.4494C35.9488 32.4568 35.9481 32.4646 35.9492 32.4723V36.6998C35.9481 36.7075 35.9488 36.7153 35.9512 36.7227C35.9536 36.7301 35.9578 36.7368 35.9633 36.7423C35.9688 36.7478 35.9755 36.7519 35.9829 36.7544C35.9902 36.7568 35.9981 36.7575 36.0058 36.7563H38.2593C38.2783 36.7532 38.2978 36.7545 38.3163 36.7602C38.3347 36.7659 38.3516 36.7758 38.3655 36.7892C38.3794 36.8025 38.39 36.819 38.3965 36.8371C38.403 36.8553 38.4051 36.8748 38.4028 36.8939V36.9927C38.4056 37.0119 38.4039 37.0314 38.3978 37.0498C38.3918 37.0682 38.3815 37.085 38.3678 37.0987C38.3541 37.1124 38.3373 37.1227 38.3189 37.1287C38.3005 37.1348 38.281 37.1365 38.2618 37.1337H36.0058C35.9981 37.1325 35.9902 37.1332 35.9829 37.1356C35.9755 37.1381 35.9688 37.1422 35.9633 37.1477C35.9578 37.1532 35.9536 37.1599 35.9512 37.1673C35.9488 37.1747 35.9481 37.1825 35.9492 37.1902V41.4312C35.9481 41.4388 35.9488 41.4467 35.9512 41.4541C35.9536 41.4615 35.9578 41.4682 35.9633 41.4737C35.9688 41.4792 35.9755 41.4833 35.9829 41.4857C35.9902 41.4882 35.9981 41.4889 36.0058 41.4877H39.4409C39.46 41.4851 39.4795 41.4869 39.4978 41.493C39.5161 41.4991 39.5328 41.5094 39.5464 41.5231C39.5601 41.5368 39.5704 41.5534 39.5765 41.5717C39.5827 41.5901 39.5845 41.6096 39.5818 41.6287V41.7418C39.5847 41.761 39.583 41.7805 39.5769 41.7989C39.5708 41.8173 39.5605 41.8341 39.5468 41.8478C39.5331 41.8615 39.5164 41.8718 39.498 41.8779C39.4796 41.8839 39.4601 41.8856 39.4409 41.8828H35.6682C35.649 41.8856 35.6294 41.8839 35.611 41.8779C35.5926 41.8718 35.5759 41.8615 35.5622 41.8478C35.5485 41.8341 35.5382 41.8173 35.5321 41.7989C35.5261 41.7805 35.5244 41.761 35.5272 41.7418V32.1617C35.5246 32.1426 35.5264 32.1231 35.5325 32.1047C35.5387 32.0864 35.549 32.0698 35.5626 32.0561C35.5763 32.0425 35.5929 32.0322 35.6112 32.026C35.6295 32.0199 35.649 32.0181 35.6682 32.0207H39.4426C39.4617 32.0181 39.4812 32.0199 39.4995 32.026C39.5178 32.0322 39.5345 32.0425 39.5481 32.0561C39.5618 32.0698 39.5721 32.0864 39.5782 32.1047C39.5844 32.1231 39.5862 32.1426 39.5835 32.1617V32.2748C39.5864 32.294 39.5847 32.3136 39.5786 32.332C39.5725 32.3504 39.5622 32.3671 39.5485 32.3808C39.5348 32.3945 39.5181 32.4048 39.4997 32.4109C39.4813 32.4169 39.4617 32.4186 39.4426 32.4158" fill="black"/>
<path d="M41.9232 32.4722V36.6844C41.9221 36.6921 41.9227 36.7 41.9252 36.7073C41.9276 36.7147 41.9318 36.7214 41.9372 36.7269C41.9427 36.7324 41.9494 36.7366 41.9568 36.739C41.9642 36.7414 41.9721 36.7421 41.9797 36.741H43.6273C43.8629 36.7478 44.0968 36.6977 44.309 36.5948C44.5212 36.492 44.7054 36.3394 44.846 36.1501C45.1698 35.6949 45.3309 35.1439 45.3034 34.5859C45.3301 34.0259 45.1691 33.4731 44.846 33.015C44.7066 32.8239 44.5228 32.6696 44.3105 32.5653C44.0981 32.4611 43.8637 32.41 43.6273 32.4165H41.9797C41.9721 32.4153 41.9642 32.416 41.9568 32.4184C41.9494 32.4209 41.9427 32.425 41.9372 32.4305C41.9318 32.436 41.9276 32.4427 41.9252 32.4501C41.9227 32.4575 41.9221 32.4653 41.9232 32.473V32.4722ZM45.3321 41.772L43.6559 37.1639C43.6533 37.1512 43.6461 37.1398 43.6357 37.1321C43.6253 37.1243 43.6123 37.1206 43.5994 37.1217H41.9797C41.9721 37.1205 41.9642 37.1212 41.9568 37.1237C41.9494 37.1261 41.9427 37.1302 41.9372 37.1357C41.9318 37.1412 41.9276 37.1479 41.9252 37.1553C41.9227 37.1627 41.9221 37.1706 41.9232 37.1782V41.7433C41.926 41.7625 41.9244 41.7821 41.9183 41.8005C41.9122 41.8189 41.9019 41.8356 41.8882 41.8493C41.8745 41.863 41.8578 41.8733 41.8394 41.8794C41.821 41.8855 41.8014 41.8872 41.7822 41.8843H41.6405C41.6214 41.887 41.6019 41.8852 41.5836 41.8791C41.5653 41.8729 41.5487 41.8626 41.5351 41.8489C41.5215 41.8352 41.5113 41.8186 41.5052 41.8002C41.4992 41.7819 41.4975 41.7624 41.5004 41.7433V32.1666C41.4975 32.1475 41.4992 32.128 41.5052 32.1097C41.5113 32.0914 41.5215 32.0747 41.5351 32.061C41.5487 32.0473 41.5653 32.037 41.5836 32.0309C41.6019 32.0247 41.6214 32.0229 41.6405 32.0256H43.6408C43.9306 32.0163 44.2186 32.0751 44.4816 32.1973C44.7446 32.3196 44.9752 32.502 45.1549 32.7296C45.5552 33.2635 45.7569 33.9202 45.7255 34.5867C45.7456 35.1694 45.5939 35.7451 45.2891 36.2421C45.158 36.4536 44.986 36.6367 44.783 36.7807C44.5801 36.9246 44.3504 37.0265 44.1075 37.0803C44.0704 37.0997 44.0543 37.1225 44.0653 37.1504L45.7415 41.7298L45.7558 41.7864C45.7558 41.8522 45.7136 41.8852 45.6292 41.8852H45.5035C45.4667 41.8881 45.43 41.8785 45.3994 41.8579C45.3688 41.8374 45.346 41.8071 45.3347 41.772" fill="black"/>
<path d="M51.4031 32.4147H47.9959C47.9882 32.4136 47.9803 32.4143 47.9729 32.4167C47.9656 32.4191 47.9589 32.4233 47.9534 32.4288C47.9479 32.4343 47.9437 32.441 47.9413 32.4484C47.9388 32.4557 47.9382 32.4636 47.9393 32.4713V36.6987C47.9382 36.7064 47.9388 36.7143 47.9413 36.7216C47.9437 36.729 47.9479 36.7357 47.9534 36.7412C47.9589 36.7467 47.9656 36.7509 47.9729 36.7533C47.9803 36.7557 47.9882 36.7564 47.9959 36.7553H50.2342C50.2533 36.7524 50.2729 36.7541 50.2913 36.7602C50.3097 36.7663 50.3264 36.7766 50.3401 36.7903C50.3538 36.804 50.3641 36.8207 50.3702 36.8391C50.3763 36.8575 50.378 36.8771 50.3751 36.8962V36.995C50.378 37.0142 50.3763 37.0337 50.3702 37.0521C50.3641 37.0705 50.3538 37.0873 50.3401 37.101C50.3264 37.1147 50.3097 37.125 50.2913 37.1311C50.2729 37.1371 50.2533 37.1388 50.2342 37.136H47.9959C47.9882 37.1348 47.9803 37.1355 47.9729 37.138C47.9656 37.1404 47.9589 37.1445 47.9534 37.15C47.9479 37.1555 47.9437 37.1622 47.9413 37.1696C47.9388 37.177 47.9382 37.1848 47.9393 37.1925V41.7433C47.9422 41.7624 47.9405 41.782 47.9344 41.8004C47.9283 41.8188 47.918 41.8355 47.9043 41.8492C47.8906 41.8629 47.8739 41.8733 47.8555 41.8793C47.8371 41.8854 47.8175 41.8871 47.7984 41.8842H47.6566C47.6375 41.8869 47.618 41.8852 47.5997 41.879C47.5814 41.8729 47.5648 41.8625 47.5512 41.8489C47.5376 41.8352 47.5274 41.8185 47.5214 41.8002C47.5153 41.7818 47.5136 41.7624 47.5165 41.7433V32.1615C47.5136 32.1424 47.5153 32.1229 47.5214 32.1046C47.5274 32.0862 47.5376 32.0696 47.5512 32.0559C47.5648 32.0422 47.5814 32.0319 47.5997 32.0257C47.618 32.0196 47.6375 32.0178 47.6566 32.0205H51.4023C51.4214 32.0178 51.4409 32.0197 51.4592 32.0258C51.4775 32.0319 51.4942 32.0422 51.5078 32.0559C51.5215 32.0696 51.5318 32.0862 51.5379 32.1045C51.5441 32.1229 51.5459 32.1423 51.5432 32.1615V32.2746C51.5461 32.2938 51.5444 32.3133 51.5383 32.3317C51.5322 32.3501 51.5219 32.3669 51.5082 32.3806C51.4945 32.3943 51.4778 32.4046 51.4594 32.4106C51.441 32.4167 51.4214 32.4184 51.4023 32.4156" fill="black"/>
<path d="M56.2349 41.0878C56.4007 40.9097 56.5296 40.7005 56.6142 40.4724C56.6988 40.2442 56.7374 40.0015 56.7278 39.7583V34.1625C56.7468 33.6689 56.5696 33.1879 56.2349 32.8246C56.0703 32.6521 55.871 32.5164 55.6502 32.4265C55.4294 32.3365 55.192 32.2944 54.9537 32.3029C54.7185 32.2945 54.4841 32.3367 54.2666 32.4267C54.049 32.5167 53.8534 32.6524 53.6928 32.8246C53.3619 33.1898 53.1874 33.6701 53.2066 34.1625V39.7566C53.1868 40.2466 53.3616 40.7246 53.6928 41.0862C53.8545 41.2564 54.0505 41.3903 54.2679 41.4789C54.4853 41.5675 54.7191 41.6089 54.9537 41.6002C55.1914 41.6092 55.4283 41.5681 55.649 41.4795C55.8697 41.3909 56.0694 41.2569 56.2349 41.0862V41.0878ZM53.3898 41.3681C53.1851 41.1487 53.0261 40.8908 52.9221 40.6093C52.8181 40.3279 52.771 40.0286 52.7838 39.7288V34.1912C52.7713 33.8901 52.8186 33.5896 52.9227 33.3068C53.0268 33.024 53.1859 32.7646 53.3906 32.5435C53.5919 32.3337 53.8351 32.1688 54.1045 32.0596C54.3738 31.9503 54.6632 31.8992 54.9537 31.9095C55.2474 31.8991 55.54 31.95 55.8128 32.0592C56.0856 32.1684 56.3326 32.3333 56.5379 32.5435C56.7446 32.7636 56.9052 33.0227 57.0106 33.3056C57.1159 33.5885 57.1639 33.8896 57.1515 34.1912V39.7288C57.1643 40.0295 57.1166 40.3297 57.0112 40.6115C56.9058 40.8934 56.7449 41.1513 56.5379 41.3698C56.3317 41.5783 56.0843 41.7417 55.8116 41.8497C55.539 41.9576 55.2468 42.0078 54.9537 41.997C54.6638 42.0074 54.375 41.957 54.1058 41.8489C53.8365 41.7409 53.5929 41.5777 53.3906 41.3698" fill="black"/>
<path d="M59.7717 32.4722V36.6844C59.7706 36.6921 59.7712 36.7 59.7737 36.7073C59.7761 36.7147 59.7802 36.7214 59.7857 36.7269C59.7912 36.7324 59.7979 36.7366 59.8053 36.739C59.8127 36.7414 59.8206 36.7421 59.8282 36.741H61.4757C61.7114 36.7478 61.9453 36.6977 62.1575 36.5948C62.3697 36.492 62.5539 36.3394 62.6945 36.1501C63.0183 35.6949 63.1794 35.1439 63.1519 34.5859C63.1786 34.0259 63.0176 33.4731 62.6945 33.015C62.555 32.8239 62.3712 32.6697 62.1589 32.5654C61.9466 32.4612 61.7122 32.41 61.4757 32.4165H59.8282C59.8206 32.4153 59.8127 32.416 59.8053 32.4184C59.7979 32.4209 59.7912 32.425 59.7857 32.4305C59.7802 32.436 59.7761 32.4427 59.7737 32.4501C59.7712 32.4575 59.7706 32.4653 59.7717 32.473V32.4722ZM63.1806 41.772L61.5036 37.1631C61.501 37.1503 61.4938 37.139 61.4833 37.1312C61.4729 37.1234 61.46 37.1197 61.4471 37.1208H59.8274C59.8197 37.1197 59.8119 37.1204 59.8045 37.1228C59.7971 37.1253 59.7904 37.1294 59.7849 37.1349C59.7794 37.1404 59.7753 37.1471 59.7728 37.1545C59.7704 37.1619 59.7697 37.1697 59.7709 37.1774V41.7425C59.7737 41.7617 59.772 41.7812 59.7659 41.7996C59.7599 41.818 59.7496 41.8348 59.7359 41.8485C59.7222 41.8622 59.7054 41.8725 59.687 41.8786C59.6686 41.8846 59.6491 41.8863 59.6299 41.8835H59.4881C59.469 41.8862 59.4495 41.8844 59.4312 41.8782C59.413 41.8721 59.3964 41.8618 59.3828 41.8481C59.3692 41.8344 59.3589 41.8177 59.3529 41.7994C59.3469 41.7811 59.3452 41.7616 59.348 41.7425V32.1666C59.3452 32.1475 59.3469 32.128 59.3529 32.1097C59.3589 32.0914 59.3692 32.0747 59.3828 32.061C59.3964 32.0473 59.413 32.037 59.4312 32.0309C59.4495 32.0247 59.469 32.0229 59.4881 32.0256H61.4892C61.7791 32.0163 62.0671 32.0751 62.3301 32.1973C62.5931 32.3196 62.8237 32.502 63.0034 32.7296C63.4037 33.2635 63.6054 33.9202 63.5739 34.5867C63.5941 35.1694 63.4424 35.7451 63.1376 36.2421C63.0065 36.4536 62.8345 36.6367 62.6315 36.7807C62.4286 36.9246 62.1989 37.0265 61.956 37.0803C61.9189 37.0997 61.9028 37.1225 61.9138 37.1504L63.59 41.7298L63.6043 41.7864C63.6043 41.8522 63.5621 41.8852 63.4777 41.8852H63.3503C63.3135 41.8881 63.2769 41.8785 63.2462 41.8579C63.2156 41.8374 63.1928 41.8071 63.1815 41.772" fill="black"/>
<path d="M69.7038 32.0205H69.8591C69.8782 32.0178 69.8977 32.0196 69.9159 32.0257C69.9342 32.0319 69.9508 32.0422 69.9644 32.0559C69.978 32.0696 69.9883 32.0862 69.9943 32.1046C70.0003 32.1229 70.002 32.1424 69.9992 32.1615V41.7424C70.002 41.7615 70.0003 41.781 69.9943 41.7993C69.9883 41.8177 69.978 41.8343 69.9644 41.848C69.9508 41.8617 69.9342 41.872 69.9159 41.8782C69.8977 41.8843 69.8782 41.8861 69.8591 41.8834H69.7173C69.6981 41.8862 69.6786 41.8846 69.6602 41.8785C69.6418 41.8724 69.625 41.8621 69.6113 41.8484C69.5976 41.8347 69.5873 41.818 69.5813 41.7996C69.5752 41.7812 69.5735 41.7616 69.5763 41.7424V33.204C69.5763 33.1761 69.5671 33.1618 69.5485 33.1618C69.5394 33.1617 69.5304 33.1644 69.5229 33.1695C69.5154 33.1746 69.5096 33.182 69.5063 33.1905L67.8588 37.1351C67.8495 37.1686 67.8292 37.198 67.8012 37.2185C67.7732 37.239 67.739 37.2495 67.7043 37.2482H67.69C67.6553 37.2495 67.6212 37.239 67.5931 37.2185C67.5651 37.198 67.5448 37.1686 67.5355 37.1351L65.8593 33.204C65.8558 33.1957 65.85 33.1886 65.8425 33.1837C65.835 33.1787 65.8261 33.1761 65.8171 33.1761C65.7986 33.1761 65.7893 33.1905 65.7893 33.2183V41.7441C65.792 41.7633 65.7902 41.7829 65.784 41.8013C65.7778 41.8197 65.7674 41.8364 65.7537 41.8501C65.7399 41.8638 65.7231 41.874 65.7047 41.8801C65.6863 41.8862 65.6667 41.8879 65.6475 41.8851H65.5066C65.4874 41.8879 65.4678 41.8863 65.4494 41.8802C65.431 41.8741 65.4143 41.8638 65.4006 41.8501C65.3869 41.8364 65.3766 41.8197 65.3705 41.8013C65.3644 41.7829 65.3628 41.7633 65.3656 41.7441V32.1615C65.3629 32.1423 65.3647 32.1229 65.3709 32.1045C65.377 32.0862 65.3873 32.0696 65.401 32.0559C65.4147 32.0422 65.4313 32.0319 65.4496 32.0258C65.4679 32.0197 65.4874 32.0178 65.5066 32.0205H65.6618C65.6966 32.0192 65.7307 32.0297 65.7587 32.0502C65.7867 32.0708 65.807 32.1001 65.8163 32.1336L67.6478 36.4446C67.6511 36.4531 67.6569 36.4603 67.6645 36.4652C67.672 36.4702 67.6809 36.4728 67.69 36.4725C67.699 36.4726 67.7079 36.4701 67.7154 36.4651C67.7229 36.4601 67.7288 36.453 67.7322 36.4446L69.5493 32.1336C69.5588 32.1001 69.5792 32.0707 69.6074 32.0502C69.6356 32.0296 69.6698 32.0192 69.7046 32.0205" fill="black"/>
<path d="M72.4779 41.7435V32.1667C72.4751 32.1476 72.4767 32.128 72.4828 32.1096C72.4889 32.0912 72.4992 32.0745 72.5129 32.0608C72.5266 32.0471 72.5433 32.0367 72.5617 32.0307C72.5801 32.0246 72.5997 32.0229 72.6189 32.0258H72.7598C72.779 32.0229 72.7985 32.0246 72.8169 32.0307C72.8353 32.0367 72.8521 32.0471 72.8658 32.0608C72.8795 32.0745 72.8898 32.0912 72.8958 32.1096C72.9019 32.128 72.9036 32.1476 72.9007 32.1667V41.7477C72.9036 41.7668 72.9019 41.7864 72.8958 41.8048C72.8898 41.8232 72.8795 41.8399 72.8658 41.8536C72.8521 41.8674 72.8353 41.8777 72.8169 41.8837C72.7985 41.8898 72.779 41.8915 72.7598 41.8886H72.6189C72.5997 41.8915 72.5801 41.8898 72.5617 41.8837C72.5433 41.8777 72.5266 41.8674 72.5129 41.8536C72.4992 41.8399 72.4889 41.8232 72.4828 41.8048C72.4767 41.7864 72.4751 41.7668 72.4779 41.7477" fill="black"/>
<path d="M79.4102 32.0209H79.5511C79.5702 32.0182 79.5897 32.02 79.608 32.0262C79.6264 32.0323 79.643 32.0426 79.6567 32.0563C79.6703 32.0699 79.6806 32.0866 79.6868 32.1049C79.6929 32.1232 79.6947 32.1427 79.692 32.1618V41.7428C79.6949 41.762 79.6932 41.7815 79.6871 41.7999C79.6811 41.8183 79.6708 41.8351 79.6571 41.8488C79.6434 41.8625 79.6266 41.8728 79.6082 41.8789C79.5898 41.8849 79.5703 41.8866 79.5511 41.8838H79.3536C79.3188 41.8852 79.2844 41.8748 79.2562 41.8543C79.228 41.8338 79.2076 41.8043 79.1983 41.7707L75.8746 33.1799C75.8653 33.152 75.851 33.1402 75.8324 33.1444C75.8138 33.1486 75.8046 33.1655 75.8046 33.1942V41.7428C75.8074 41.762 75.8057 41.7815 75.7996 41.7999C75.7936 41.8183 75.7833 41.8351 75.7696 41.8488C75.7559 41.8625 75.7391 41.8728 75.7207 41.8789C75.7023 41.8849 75.6828 41.8866 75.6636 41.8838H75.5227C75.5035 41.8866 75.4839 41.8849 75.4655 41.8789C75.4471 41.8728 75.4304 41.8625 75.4167 41.8488C75.403 41.8351 75.3927 41.8183 75.3866 41.7999C75.3806 41.7815 75.3789 41.762 75.3817 41.7428V32.1618C75.3791 32.1427 75.3809 32.1232 75.387 32.1049C75.3931 32.0866 75.4034 32.0699 75.4171 32.0563C75.4308 32.0426 75.4474 32.0323 75.4657 32.0262C75.484 32.02 75.5035 32.0182 75.5227 32.0209H75.7058C75.7405 32.0198 75.7745 32.0303 75.8025 32.0508C75.8305 32.0713 75.8509 32.1006 75.8603 32.134L79.1992 40.7568C79.2084 40.7847 79.2228 40.7965 79.2414 40.7923C79.2599 40.7881 79.2692 40.7712 79.2692 40.7425V32.1618C79.2664 32.1427 79.268 32.1231 79.2741 32.1047C79.2802 32.0863 79.2905 32.0696 79.3042 32.0559C79.3179 32.0422 79.3346 32.0319 79.353 32.0258C79.3714 32.0197 79.391 32.018 79.4102 32.0209Z" fill="black"/>
<path d="M82.4658 41.4041C82.2653 41.1951 82.1095 40.9474 82.0079 40.6762C81.9064 40.4049 81.8611 40.1158 81.875 39.8265V34.0796C81.8611 33.7901 81.9063 33.5009 82.0079 33.2295C82.1095 32.9581 82.2653 32.7102 82.4658 32.501C82.8946 32.1187 83.4494 31.9079 84.0239 31.9092C84.5984 31.9104 85.1522 32.1236 85.5794 32.5078C85.7795 32.7186 85.9351 32.9677 86.0366 33.2401C86.1381 33.5125 86.1836 33.8027 86.1702 34.0931V34.727C86.173 34.7462 86.1713 34.7658 86.1652 34.7842C86.1592 34.8026 86.1489 34.8193 86.1352 34.833C86.1215 34.8467 86.1047 34.857 86.0863 34.8631C86.0679 34.8692 86.0484 34.8708 86.0292 34.868H85.8883C85.8691 34.8708 85.8495 34.8692 85.8311 34.8631C85.8127 34.857 85.796 34.8467 85.7823 34.833C85.7686 34.8193 85.7583 34.8026 85.7522 34.7842C85.7461 34.7658 85.7445 34.7462 85.7473 34.727V34.0644C85.7575 33.8304 85.7203 33.5967 85.6381 33.3774C85.5559 33.1581 85.4302 32.9577 85.2688 32.788C85.1042 32.6253 84.9079 32.4982 84.6922 32.4146C84.4764 32.3309 84.2458 32.2926 84.0146 32.3018C83.7844 32.2919 83.5547 32.3301 83.3401 32.4138C83.1255 32.4975 82.9307 32.6249 82.768 32.788C82.6083 32.9586 82.4843 33.1594 82.4033 33.3786C82.3223 33.5978 82.2858 33.8309 82.2962 34.0644V39.84C82.2857 40.0734 82.3221 40.3066 82.4031 40.5258C82.4841 40.745 82.6082 40.9458 82.768 41.1163C82.9306 41.2795 83.1254 41.407 83.3401 41.4907C83.5547 41.5744 83.7844 41.6125 84.0146 41.6025C84.2458 41.6118 84.4764 41.5734 84.6922 41.4897C84.9079 41.4061 85.1042 41.279 85.2688 41.1163C85.4303 40.9467 85.5559 40.7462 85.6382 40.5269C85.7204 40.3076 85.7575 40.074 85.7473 39.84V37.6005C85.7485 37.5928 85.7478 37.5849 85.7453 37.5775C85.7429 37.5702 85.7388 37.5635 85.7333 37.558C85.7278 37.5525 85.7211 37.5483 85.7137 37.5459C85.7063 37.5434 85.6985 37.5428 85.6908 37.5439H84.2399C84.2208 37.5468 84.2012 37.5451 84.1828 37.539C84.1644 37.5329 84.1477 37.5226 84.134 37.5089C84.1203 37.4952 84.11 37.4785 84.1039 37.4601C84.0978 37.4417 84.0961 37.4221 84.099 37.4029V37.305C84.0962 37.2858 84.0979 37.2662 84.1039 37.2478C84.11 37.2294 84.1203 37.2126 84.134 37.1988C84.1476 37.1851 84.1644 37.1747 84.1827 37.1685C84.2011 37.1623 84.2207 37.1605 84.2399 37.1632H86.0292C86.0484 37.1605 86.068 37.1623 86.0864 37.1685C86.1048 37.1747 86.1215 37.1851 86.1352 37.1988C86.1488 37.2126 86.1591 37.2294 86.1652 37.2478C86.1713 37.2662 86.173 37.2858 86.1702 37.305V39.829C86.1898 40.1178 86.1476 40.4075 86.0464 40.6787C85.9452 40.9499 85.7873 41.1964 85.5833 41.4017C85.3793 41.607 85.1339 41.7664 84.8633 41.8693C84.5928 41.9722 84.3035 42.0162 84.0146 41.9984C83.7297 42.0106 83.4453 41.9645 83.1788 41.8629C82.9124 41.7613 82.6695 41.6063 82.465 41.4075" fill="black"/>
<path d="M95.5758 33.3802C95.5603 33.3963 95.5417 33.409 95.5211 33.4175C95.5004 33.4261 95.4783 33.4303 95.456 33.43H92.4125C92.403 33.4287 92.3933 33.4297 92.3843 33.4328C92.3752 33.4359 92.367 33.441 92.3602 33.4478C92.3534 33.4545 92.3483 33.4628 92.3452 33.4718C92.3421 33.4809 92.3412 33.4906 92.3424 33.5001V36.1633C92.341 36.1729 92.3419 36.1826 92.3449 36.1918C92.3479 36.201 92.353 36.2093 92.3598 36.2162C92.3666 36.2231 92.3749 36.2283 92.384 36.2314C92.3932 36.2345 92.4029 36.2355 92.4125 36.2342H94.217C94.2392 36.2341 94.2612 36.2383 94.2818 36.2467C94.3023 36.2551 94.321 36.2675 94.3368 36.2832C94.3526 36.2989 94.3651 36.3176 94.3737 36.3381C94.3822 36.3587 94.3866 36.3808 94.3866 36.403V37.4878C94.3866 37.51 94.3822 37.5321 94.3737 37.5527C94.3651 37.5732 94.3526 37.5919 94.3368 37.6076C94.3212 37.6235 94.3026 37.6361 94.282 37.6445C94.2614 37.6529 94.2392 37.657 94.217 37.6566H92.4133C92.4037 37.6553 92.394 37.6563 92.3849 37.6594C92.3757 37.6625 92.3674 37.6677 92.3607 37.6746C92.3539 37.6815 92.3488 37.6898 92.3458 37.699C92.3427 37.7082 92.3419 37.7179 92.3433 37.7275V40.4059C92.3419 40.4155 92.3427 40.4252 92.3458 40.4344C92.3488 40.4436 92.3539 40.452 92.3607 40.4588C92.3674 40.4657 92.3757 40.4709 92.3849 40.474C92.394 40.4772 92.4037 40.4781 92.4133 40.4768H95.4568C95.479 40.4768 95.5009 40.4812 95.5214 40.4897C95.5419 40.4982 95.5605 40.5106 95.5762 40.5263C95.5918 40.542 95.6043 40.5606 95.6128 40.5811C95.6213 40.6015 95.6256 40.6235 95.6256 40.6457V41.716C95.6262 41.7384 95.622 41.7606 95.6135 41.7813C95.6049 41.8019 95.5921 41.8205 95.5758 41.8359C95.5603 41.852 95.5417 41.8647 95.5211 41.8733C95.5004 41.8818 95.4783 41.8861 95.456 41.8857H90.8764C90.8541 41.8861 90.8319 41.8818 90.8113 41.8733C90.7907 41.8647 90.772 41.852 90.7565 41.8359C90.7405 41.8205 90.7278 41.8018 90.7194 41.7812C90.7109 41.7605 90.7069 41.7383 90.7076 41.716V32.19C90.7069 32.1677 90.7109 32.1455 90.7194 32.1248C90.7278 32.1042 90.7405 32.0855 90.7565 32.0701C90.772 32.054 90.7907 32.0413 90.8113 32.0327C90.8319 32.0242 90.8541 32.0199 90.8764 32.0203H95.4551C95.4999 32.0203 95.5428 32.0381 95.5745 32.0697C95.6061 32.1014 95.6239 32.1443 95.6239 32.1891V33.2629C95.6245 33.2852 95.6203 33.3074 95.6118 33.3281C95.6032 33.3487 95.5904 33.3673 95.5741 33.3827" fill="black"/>
<path d="M98.4832 41.7282L96.4686 32.2039L96.4551 32.1473C96.4551 32.0629 96.5082 32.0198 96.6095 32.0198H98.0325C98.055 32.0165 98.078 32.0179 98.0998 32.0242C98.1217 32.0304 98.142 32.0412 98.1593 32.0559C98.1767 32.0706 98.1907 32.0889 98.2004 32.1094C98.2101 32.13 98.2153 32.1524 98.2157 32.1751L99.3855 38.9519C99.3947 38.9797 99.4091 38.9941 99.4277 38.9941C99.4462 38.9941 99.4597 38.9797 99.4699 38.9519L100.611 32.1751C100.611 32.1524 100.617 32.13 100.626 32.1094C100.636 32.0889 100.65 32.0706 100.667 32.0559C100.685 32.0412 100.705 32.0304 100.727 32.0242C100.749 32.0179 100.772 32.0165 100.794 32.0198H102.177C102.299 32.0198 102.346 32.0809 102.318 32.203L100.292 41.7282C100.29 41.7505 100.284 41.7722 100.274 41.7921C100.264 41.812 100.25 41.8297 100.233 41.8442C100.216 41.8586 100.196 41.8695 100.175 41.8763C100.153 41.883 100.131 41.8855 100.109 41.8836H98.674C98.6517 41.8855 98.6293 41.883 98.608 41.8763C98.5867 41.8695 98.567 41.8586 98.55 41.8442C98.5329 41.8297 98.5189 41.812 98.5088 41.7921C98.4986 41.7722 98.4925 41.7505 98.4908 41.7282" fill="black"/>
<path d="M108.338 33.3802C108.323 33.3963 108.304 33.409 108.283 33.4175C108.263 33.4261 108.24 33.4303 108.218 33.43H105.175C105.165 33.4287 105.156 33.4297 105.146 33.4328C105.137 33.4359 105.129 33.441 105.122 33.4478C105.116 33.4545 105.111 33.4628 105.107 33.4718C105.104 33.4809 105.103 33.4906 105.105 33.5001V36.1633C105.103 36.1729 105.104 36.1826 105.107 36.1918C105.11 36.201 105.115 36.2093 105.122 36.2162C105.129 36.2231 105.137 36.2283 105.146 36.2314C105.155 36.2345 105.165 36.2355 105.175 36.2342H106.978C107.001 36.2341 107.023 36.2383 107.043 36.2467C107.064 36.2551 107.082 36.2675 107.098 36.2832C107.114 36.2989 107.127 36.3176 107.135 36.3381C107.144 36.3587 107.148 36.3808 107.148 36.403V37.4878C107.148 37.51 107.144 37.5321 107.135 37.5527C107.127 37.5732 107.114 37.5919 107.098 37.6076C107.083 37.6235 107.064 37.6361 107.043 37.6445C107.023 37.6529 107.001 37.657 106.978 37.6566H105.175C105.165 37.6553 105.155 37.6563 105.146 37.6594C105.137 37.6625 105.129 37.6677 105.122 37.6746C105.115 37.6815 105.11 37.6898 105.107 37.699C105.104 37.7082 105.103 37.7179 105.105 37.7275V40.4059C105.103 40.4155 105.104 40.4252 105.107 40.4344C105.11 40.4436 105.115 40.452 105.122 40.4588C105.129 40.4657 105.137 40.4709 105.146 40.474C105.155 40.4772 105.165 40.4781 105.175 40.4768H108.218C108.263 40.4768 108.306 40.4946 108.338 40.5263C108.369 40.558 108.387 40.6009 108.387 40.6457V41.716C108.388 41.7384 108.383 41.7606 108.375 41.7813C108.366 41.8019 108.353 41.8205 108.337 41.8359C108.322 41.852 108.303 41.8647 108.282 41.8733C108.262 41.8818 108.24 41.8861 108.217 41.8857H103.639C103.616 41.8861 103.594 41.8818 103.573 41.8733C103.553 41.8647 103.534 41.852 103.519 41.8359C103.503 41.8205 103.49 41.8018 103.482 41.7812C103.473 41.7605 103.469 41.7383 103.47 41.716V32.19C103.469 32.1677 103.473 32.1455 103.482 32.1248C103.49 32.1042 103.503 32.0855 103.519 32.0701C103.534 32.054 103.553 32.0413 103.573 32.0327C103.594 32.0242 103.616 32.0199 103.639 32.0203H108.217C108.239 32.0203 108.261 32.0247 108.282 32.0331C108.302 32.0416 108.321 32.0541 108.337 32.0697C108.352 32.0854 108.365 32.104 108.373 32.1245C108.382 32.145 108.386 32.1669 108.386 32.1891V33.2629C108.387 33.2852 108.383 33.3074 108.374 33.3281C108.365 33.3487 108.353 33.3673 108.336 33.3827" fill="black"/>
<path d="M111.233 33.4996V36.3021C111.232 36.3117 111.232 36.3214 111.235 36.3306C111.238 36.3398 111.244 36.3481 111.25 36.355C111.257 36.3619 111.265 36.3671 111.275 36.3702C111.284 36.3733 111.293 36.3743 111.303 36.373H112.161C112.319 36.3769 112.476 36.3432 112.62 36.2747C112.763 36.2062 112.888 36.1048 112.984 35.9788C113.211 35.6693 113.324 35.2908 113.303 34.9076C113.323 34.5224 113.211 34.142 112.984 33.8296C112.889 33.702 112.764 33.5989 112.621 33.529C112.478 33.4591 112.32 33.4244 112.161 33.4278H111.302C111.293 33.4266 111.283 33.4275 111.274 33.4306C111.265 33.4337 111.257 33.4388 111.25 33.4456C111.243 33.4524 111.238 33.4606 111.235 33.4697C111.232 33.4788 111.231 33.4884 111.232 33.4979L111.233 33.4996ZM113.317 41.7384L112.119 37.6949C112.101 37.657 112.077 37.6384 112.049 37.6384H111.302C111.293 37.6371 111.283 37.6381 111.274 37.6412C111.265 37.6443 111.257 37.6494 111.25 37.6562C111.243 37.6629 111.238 37.6712 111.235 37.6802C111.232 37.6893 111.231 37.699 111.232 37.7085V41.7105C111.233 41.7329 111.229 41.7551 111.22 41.7757C111.211 41.7964 111.199 41.815 111.182 41.8304C111.167 41.8464 111.148 41.8592 111.128 41.8677C111.107 41.8763 111.085 41.8805 111.062 41.8802H109.769C109.747 41.8805 109.725 41.8763 109.704 41.8677C109.684 41.8592 109.665 41.8464 109.65 41.8304C109.634 41.8149 109.621 41.7963 109.612 41.7756C109.604 41.755 109.6 41.7328 109.601 41.7105V32.1903C109.6 32.1681 109.604 32.1459 109.613 32.1253C109.621 32.1047 109.634 32.086 109.65 32.0705C109.665 32.0548 109.684 32.0424 109.705 32.034C109.725 32.0256 109.747 32.0214 109.769 32.0215H112.418C112.88 32.008 113.335 32.1311 113.727 32.3755C114.12 32.6198 114.431 32.9744 114.622 33.3949C114.842 33.8641 114.951 34.3772 114.942 34.8949C114.955 35.4177 114.839 35.9357 114.604 36.4026C114.393 36.8098 114.064 37.1436 113.659 37.3598C113.621 37.3691 113.606 37.3978 113.617 37.4442L114.999 41.6852C115.009 41.7072 115.013 41.7312 115.012 41.7552C115.012 41.8397 114.959 41.8827 114.858 41.8827H113.508C113.465 41.8852 113.423 41.8723 113.39 41.8464C113.356 41.8205 113.333 41.7833 113.324 41.7417" fill="black"/>
<path d="M117.466 41.8199C117.45 41.8045 117.437 41.7859 117.429 41.7653C117.42 41.7446 117.416 41.7224 117.416 41.7V37.8533L117.403 37.7689L115.445 32.2178C115.435 32.1959 115.43 32.1719 115.431 32.1478C115.431 32.0634 115.484 32.0203 115.586 32.0203H116.936C116.981 32.0162 117.025 32.0282 117.061 32.0541C117.097 32.08 117.123 32.118 117.134 32.1613L118.19 35.7826C118.2 35.8105 118.214 35.8248 118.233 35.8248C118.251 35.8248 118.265 35.8105 118.275 35.7826L119.331 32.1613C119.341 32.118 119.367 32.08 119.403 32.0541C119.439 32.0282 119.484 32.0162 119.528 32.0203H120.879C120.902 32.0188 120.925 32.0224 120.947 32.031C120.969 32.0397 120.989 32.053 121.005 32.0701C121.02 32.0916 121.029 32.1163 121.031 32.1422C121.034 32.168 121.03 32.194 121.019 32.2178L119.061 37.7689L119.047 37.8533V41.7C119.047 41.7448 119.029 41.7877 118.998 41.8194C118.966 41.8511 118.923 41.8689 118.878 41.8689H117.582C117.56 41.8692 117.537 41.865 117.517 41.8564C117.496 41.8478 117.477 41.8351 117.462 41.819" fill="black"/>
<path d="M125.251 40.2558C125.456 40.0146 125.562 39.7049 125.547 39.3888V34.5148C125.562 34.1987 125.456 33.889 125.251 33.6479C125.154 33.5391 125.034 33.4531 124.9 33.3959C124.766 33.3387 124.622 33.3117 124.476 33.317C124.331 33.3112 124.187 33.338 124.055 33.3953C123.922 33.4525 123.803 33.5388 123.708 33.6479C123.508 33.891 123.405 34.2 123.419 34.5148V39.3897C123.405 39.7045 123.508 40.0134 123.708 40.2566C123.803 40.3656 123.922 40.4519 124.055 40.5092C124.187 40.5665 124.331 40.5932 124.476 40.5875C124.622 40.5927 124.766 40.5658 124.9 40.5086C125.034 40.4514 125.154 40.3654 125.251 40.2566V40.2558ZM122.525 41.2696C122.276 41.0136 122.081 40.7092 121.954 40.3753C121.827 40.0414 121.77 39.685 121.785 39.328V34.5933C121.769 34.2353 121.827 33.8778 121.954 33.543C122.082 33.2081 122.277 32.9031 122.527 32.6467C123.069 32.1743 123.763 31.9141 124.482 31.9141C125.201 31.9141 125.895 32.1743 126.437 32.6467C126.688 32.9015 126.884 33.2054 127.013 33.5395C127.141 33.8736 127.199 34.2306 127.184 34.5882V39.3205C127.199 39.6781 127.141 40.0351 127.013 40.3692C126.884 40.7033 126.688 41.0072 126.437 41.262C125.895 41.7344 125.201 41.9946 124.482 41.9946C123.763 41.9946 123.069 41.7344 122.527 41.262" fill="black"/>
<path d="M132.584 32.0694C132.599 32.0533 132.618 32.0406 132.639 32.032C132.659 32.0234 132.681 32.0192 132.704 32.0196H133.986C134.031 32.0196 134.074 32.0373 134.105 32.069C134.137 32.1007 134.155 32.1436 134.155 32.1884V41.7136C134.155 41.7584 134.137 41.8013 134.105 41.833C134.074 41.8647 134.031 41.8824 133.986 41.8824H132.506C132.464 41.8849 132.422 41.8722 132.389 41.8465C132.355 41.8207 132.332 41.7838 132.323 41.7423L130.221 35.7684C130.211 35.7405 130.195 35.7287 130.171 35.7329C130.16 35.735 130.15 35.7413 130.143 35.7506C130.136 35.7599 130.134 35.7714 130.135 35.7827L130.149 41.7145C130.149 41.7366 130.145 41.7586 130.136 41.7791C130.128 41.7995 130.115 41.8182 130.1 41.8338C130.084 41.8495 130.065 41.8619 130.045 41.8704C130.024 41.8789 130.002 41.8833 129.98 41.8833H128.702C128.679 41.8833 128.657 41.8789 128.637 41.8704C128.616 41.8619 128.598 41.8495 128.582 41.8338C128.566 41.8182 128.554 41.7995 128.546 41.7791C128.537 41.7586 128.533 41.7366 128.533 41.7145V32.1892C128.533 32.1444 128.55 32.1015 128.582 32.0698C128.614 32.0382 128.657 32.0204 128.702 32.0204H130.152C130.195 32.0181 130.236 32.0311 130.27 32.0569C130.304 32.0828 130.327 32.1198 130.336 32.1614L132.446 38.0931C132.455 38.121 132.472 38.1328 132.495 38.1286C132.507 38.1265 132.517 38.1201 132.523 38.1108C132.53 38.1016 132.532 38.09 132.531 38.0788V32.1892C132.53 32.1669 132.535 32.1447 132.543 32.1241C132.552 32.1035 132.564 32.0849 132.581 32.0694" fill="black"/>
<path d="M140.54 33.3802C140.524 33.3963 140.506 33.409 140.485 33.4175C140.464 33.4261 140.442 33.4303 140.42 33.43H137.377C137.368 33.4286 137.358 33.4294 137.349 33.4325C137.34 33.4355 137.331 33.4406 137.324 33.4474C137.317 33.4542 137.312 33.4625 137.309 33.4716C137.306 33.4807 137.305 33.4905 137.306 33.5001V36.1633C137.305 36.1729 137.306 36.1828 137.309 36.192C137.312 36.2013 137.317 36.2097 137.324 36.2166C137.331 36.2235 137.339 36.2287 137.348 36.2317C137.358 36.2348 137.368 36.2356 137.377 36.2342H139.18C139.202 36.2341 139.224 36.2383 139.245 36.2467C139.265 36.2551 139.284 36.2675 139.3 36.2832C139.316 36.2989 139.328 36.3176 139.337 36.3381C139.345 36.3587 139.35 36.3808 139.35 36.403V37.4878C139.35 37.51 139.345 37.5321 139.337 37.5527C139.328 37.5732 139.316 37.5919 139.3 37.6076C139.284 37.6235 139.266 37.6361 139.245 37.6445C139.224 37.6529 139.202 37.657 139.18 37.6566H137.377C137.368 37.6552 137.358 37.656 137.348 37.6591C137.339 37.6621 137.331 37.6673 137.324 37.6742C137.317 37.6811 137.312 37.6895 137.309 37.6988C137.306 37.708 137.305 37.7178 137.306 37.7275V40.4059C137.305 40.4156 137.306 40.4254 137.309 40.4347C137.312 40.4439 137.317 40.4523 137.324 40.4592C137.331 40.4661 137.339 40.4713 137.348 40.4743C137.358 40.4774 137.368 40.4783 137.377 40.4768H140.42C140.442 40.4768 140.464 40.4812 140.484 40.4897C140.505 40.4982 140.524 40.5106 140.539 40.5263C140.555 40.542 140.567 40.5606 140.576 40.5811C140.584 40.6015 140.589 40.6235 140.589 40.6457V41.716C140.589 41.7384 140.585 41.7606 140.576 41.7813C140.568 41.8019 140.555 41.8205 140.539 41.8359C140.523 41.852 140.505 41.8647 140.484 41.8733C140.463 41.8818 140.441 41.8861 140.419 41.8857H135.84C135.818 41.8861 135.796 41.8818 135.775 41.8733C135.755 41.8647 135.736 41.852 135.72 41.8359C135.704 41.8205 135.692 41.8018 135.683 41.7812C135.675 41.7605 135.671 41.7383 135.671 41.716V32.19C135.671 32.1677 135.675 32.1455 135.683 32.1248C135.692 32.1042 135.704 32.0855 135.72 32.0701C135.736 32.054 135.755 32.0413 135.775 32.0327C135.796 32.0242 135.818 32.0199 135.84 32.0203H140.419C140.441 32.0203 140.463 32.0247 140.484 32.0331C140.504 32.0416 140.523 32.0541 140.538 32.0697C140.554 32.0854 140.566 32.104 140.575 32.1245C140.583 32.145 140.588 32.1669 140.588 32.1891V33.2629C140.588 33.2852 140.584 33.3074 140.576 33.3281C140.567 33.3487 140.554 33.3673 140.538 33.3827" fill="black"/>
</svg>
