<?xml version="1.0" encoding="utf-8"?>
<!-- Generator: Adobe Illustrator 27.7.0, SVG Export Plug-In . SVG Version: 6.00 Build 0)  -->
<svg version="1.1" id="Layer_1" xmlns="http://www.w3.org/2000/svg" xmlns:xlink="http://www.w3.org/1999/xlink" x="0px" y="0px"
	 viewBox="0 0 234.1 67.7" style="enable-background:new 0 0 234.1 67.7;" xml:space="preserve">
<style type="text/css">
	.st0{clip-path:url(#SVGID_00000067228098578714964530000014803432121471243942_);}
	.st1{fill:#FFFFFF;filter:url(#Adobe_OpacityMaskFilter);}
	.st2{mask:url(#mask0_1703_45_00000149382000006267100910000002207569604251743380_);}
	.st3{fill:#EB1C24;}
</style>
<g>
	<defs>
		<rect id="SVGID_1_" x="18.5" y="5.7" width="197" height="56.1"/>
	</defs>
	<clipPath id="SVGID_00000109725313048863577270000015431911137962744471_">
		<use xlink:href="#SVGID_1_"  style="overflow:visible;"/>
	</clipPath>
	<g style="clip-path:url(#SVGID_00000109725313048863577270000015431911137962744471_);">
		<defs>
			<filter id="Adobe_OpacityMaskFilter" filterUnits="userSpaceOnUse" x="18.6" y="5.7" width="196.3" height="53.1">
				<feColorMatrix  type="matrix" values="1 0 0 0 0  0 1 0 0 0  0 0 1 0 0  0 0 0 1 0"/>
			</filter>
		</defs>
		
			<mask maskUnits="userSpaceOnUse" x="18.6" y="5.7" width="196.3" height="53.1" id="mask0_1703_45_00000149382000006267100910000002207569604251743380_">
			<path class="st1" d="M215.4,5.7H18.6v56.1h196.8V5.7z"/>
		</mask>
		<g class="st2">
			<path class="st3" d="M53.7,19.9c1.2,0,1.8-1,1.8-3.1c0-0.7,0-1.3-0.2-2c0-0.2-0.1-0.4-0.2-0.5c-0.1-0.2-0.2-0.3-0.4-0.4
				c-0.4-0.2-0.8-0.3-1.2-0.3h-2v6.3L53.7,19.9z M42.7,7.4h13.5c1.7-0.1,3.5,0.3,5,1.1c1.2,0.7,2,1.8,2.4,3.1
				c0.5,1.7,0.7,3.4,0.6,5.2c0.1,1.6-0.3,3.1-1,4.5c-0.4,0.6-0.9,1.1-1.5,1.5c-0.6,0.4-1.2,0.7-1.9,0.8c0.6,0,1.1,0.2,1.6,0.5
				c0.5,0.3,0.9,0.6,1.3,1.1c0.6,1,1,2.1,0.9,3.3l-0.1,12.8h-8.6V28c0-0.9-0.2-1.5-0.7-1.8c-0.8-0.3-1.7-0.5-2.6-0.4v15.4h-8.9V7.4z
				"/>
			<path class="st3" d="M92.6,32.8v-4.2c0.1-0.8-0.2-1.6-0.6-2.3c-0.3-0.3-0.6-0.5-1-0.6c-0.4-0.1-0.8-0.2-1.2-0.1h-1.7v9.8l0.9,0
				C91.4,35.3,92.6,34.4,92.6,32.8L92.6,32.8z M90,20.1c0.3,0,0.6,0,0.9-0.1c0.3-0.1,0.5-0.3,0.7-0.5c0.3-0.6,0.5-1.2,0.4-1.8v-3.4
				c0-1.1-0.7-1.6-2-1.6h-1.9v7.5H90z M79.1,7.4h12.5c3.4,0,5.8,0.6,7.3,1.8c1.5,1.2,2.3,3.2,2.3,5.9v1.5c0.1,1.4-0.3,2.8-1.2,3.9
				c-0.9,1.1-2.2,1.8-3.5,1.9c0.8,0.1,1.6,0.4,2.3,0.8c0.7,0.4,1.3,1,1.7,1.7c0.9,1.6,1.3,3.5,1.2,5.3c0,3.6-0.7,6.3-2.2,8.2
				c-1.5,1.8-4.1,2.8-7.9,2.8H79.1V7.4z"/>
			<path class="st3" d="M24.3,41.2V13.9h-5.7V7.4h21v6.5h-5.7v27.3H24.3z"/>
			<path class="st3" d="M104.9,41.2V7.4h16.4V14h-8.1v6.6h7.7v6.4h-7.7v7.8h8.6v6.6L104.9,41.2z"/>
			<path class="st3" d="M75.7,7.4h-8.2v33.8h8.2V7.4z"/>
			<path d="M133.1,39.3c-1.7-1.6-2.5-3.9-2.5-7.1v-3.5h8.5v3.5c0,0.8,0.1,1.6,0.5,2.4c0.2,0.3,0.5,0.5,0.9,0.7
				c0.3,0.1,0.7,0.2,1.1,0.2c0.3,0,0.6,0,0.8-0.1c0.3-0.1,0.5-0.3,0.7-0.5c0.3-0.4,0.5-0.9,0.6-1.4c0.1-0.8,0.1-1.6,0.1-2.3v-0.8
				c0-2.9-1.2-4.4-3.5-4.4c-0.3,0-0.6,0-0.8,0v-6.1c1.2,0.1,2.3-0.2,3.4-0.8c0.4-0.3,0.7-0.7,0.9-1.1c0.2-0.4,0.3-0.9,0.2-1.4
				c0-1.9-0.7-2.9-2-2.9c-0.8,0-1.4,0.2-1.6,0.5c-0.3,0.4-0.4,0.8-0.5,1.3c-0.1,0.5-0.1,0.9-0.2,1.1v1h-8.6l0-1.2
				c0-3.1,0.9-5.4,2.7-6.8c1.8-1.5,4.5-2.2,8.2-2.2c7.1,0,10.6,3,10.6,9c0.1,1.4-0.2,2.9-0.9,4.2c-0.3,0.5-0.8,1-1.3,1.4
				c-0.5,0.4-1.1,0.6-1.7,0.8c1,0.4,1.9,1,2.6,1.7c0.6,0.7,1,1.6,1.1,2.5c0.2,1.3,0.3,2.7,0.3,4c0,3.5-0.9,6.1-2.7,7.9
				c-1.8,1.8-4.7,2.7-8.6,2.7C137.5,41.6,134.8,40.8,133.1,39.3"/>
			<path d="M168.5,34.5c0.3-0.9,0.4-1.8,0.4-2.8V29c0-1.8-0.6-2.7-1.9-2.7c-1.5,0-2.2,0.8-2.2,2.4v4.2c0,1.7,0.7,2.5,2.1,2.5
				C167.7,35.3,168.2,35,168.5,34.5L168.5,34.5z M160.3,40.4c-1.6-0.7-2.8-2-3.5-3.5c-0.7-2-1.1-4-1-6.1v-9.1
				c-0.1-2.8,0.2-5.5,0.8-8.2c0.5-1.9,1.6-3.5,3.3-4.6c1.7-1.1,4.1-1.6,7.4-1.6c1.7,0,3.4,0.2,5,0.7c1.4,0.4,2.7,1.2,3.7,2.2
				c0.9,1,1.4,2.3,1.4,3.6v3.7h-8.1v-0.7c0-0.9-0.1-1.8-0.4-2.7c-0.1-0.3-0.4-0.6-0.7-0.8c-0.3-0.2-0.7-0.2-1-0.2
				c-0.3,0-0.7,0-1,0.1c-0.3,0.1-0.6,0.3-0.9,0.5c-0.4,0.5-0.6,1.2-0.6,1.8v6.8c0.4-0.7,1.1-1.2,1.8-1.5c0.9-0.4,1.9-0.6,2.9-0.5
				c1.8-0.1,3.6,0.3,5.3,1.1c1.2,0.7,2.2,1.9,2.6,3.3c0.5,1.8,0.8,3.7,0.7,5.7c0,3.6-0.8,6.4-2.5,8.3c-1.7,2-4.5,2.9-8.4,2.9
				C164.8,41.6,162.5,41.2,160.3,40.4"/>
			<path d="M183.4,39.7c-1-0.6-1.7-1.5-2.3-2.5c-0.5-1-0.8-2.2-0.7-3.3v-5h8.6v2.9c0,0.9,0.1,1.8,0.4,2.7c0.2,0.3,0.4,0.6,0.7,0.8
				c0.3,0.2,0.7,0.2,1.1,0.2c0.3,0,0.6,0,0.9-0.1s0.6-0.3,0.8-0.6c0.3-0.6,0.5-1.3,0.5-2v-6.6c0-0.9-0.1-1.8-0.4-2.6
				c-0.1-0.3-0.4-0.6-0.7-0.8c-0.3-0.2-0.7-0.2-1-0.2c-1.6,0-2.4,0.9-2.4,2.8h-7.6v-18h19.8v6.3h-11.9v4.8c0.5-0.5,1.1-0.9,1.7-1.1
				c0.8-0.3,1.6-0.4,2.4-0.4c3.5,0,5.9,1,7.1,3c1.3,2,1.9,4.8,1.9,8.5c0.1,2.5-0.2,4.9-0.8,7.3c-0.5,1.8-1.6,3.4-3.2,4.4
				c-2.2,1.2-4.6,1.7-7.1,1.6C188.6,41.8,185.8,41.1,183.4,39.7"/>
			<path d="M210,10.2c0.2,0,0.3-0.2,0.3-0.5c0-0.1,0-0.2,0-0.3c0-0.1,0-0.1-0.1-0.1c-0.1,0-0.1,0-0.2,0h-0.3v1L210,10.2z M208.3,8.3
				h2.1c0.3,0,0.5,0,0.8,0.2c0.2,0.1,0.3,0.3,0.4,0.5c0.1,0.3,0.1,0.5,0.1,0.8c0,0.2,0,0.5-0.2,0.7c-0.1,0.1-0.1,0.2-0.2,0.2
				c-0.1,0.1-0.2,0.1-0.3,0.1c0.1,0,0.2,0,0.2,0.1c0.1,0,0.1,0.1,0.2,0.2c0.1,0.2,0.1,0.3,0.1,0.5l0,2h-1.3v-2.1
				c0-0.1,0-0.2-0.1-0.3c-0.1-0.1-0.3-0.1-0.4-0.1v2.4h-1.4L208.3,8.3z"/>
			<path d="M209.9,6.5c-0.8,0-1.7,0.2-2.4,0.7s-1.2,1.1-1.6,1.9c-0.3,0.8-0.4,1.6-0.2,2.4c0.2,0.8,0.6,1.6,1.2,2.2
				c0.6,0.6,1.3,1,2.2,1.2c0.8,0.2,1.7,0.1,2.4-0.2c0.8-0.3,1.4-0.9,1.9-1.6c0.5-0.7,0.7-1.5,0.7-2.4c0-1.1-0.4-2.2-1.2-3
				C212.1,6.9,211.1,6.5,209.9,6.5z M209.9,15.7c-1,0-1.9-0.3-2.8-0.8c-0.8-0.5-1.5-1.3-1.8-2.2c-0.4-0.9-0.5-1.9-0.3-2.9
				c0.2-1,0.7-1.8,1.4-2.5c0.7-0.7,1.6-1.2,2.5-1.4c1-0.2,2-0.1,2.9,0.3c0.9,0.4,1.7,1,2.2,1.8c0.5,0.8,0.8,1.8,0.8,2.8
				c0,1.3-0.5,2.6-1.5,3.5C212.5,15.2,211.3,15.7,209.9,15.7z"/>
			<path d="M203,55.3c0,0.1,0,0.1-0.1,0.1c0,0-0.1,0-0.1,0h-3.3c-0.1,0-0.1,0-0.1,0.1v0.7c0,0.3,0.1,0.6,0.3,0.8
				c0.2,0.2,0.4,0.3,0.7,0.3c0.2,0,0.4-0.1,0.6-0.2c0.2-0.2,0.3-0.3,0.3-0.6c0-0.1,0.1-0.2,0.2-0.2l1.3,0.1c0.1,0,0.1,0,0.1,0.1
				c0,0,0.1,0.1,0,0.1c-0.1,0.7-0.3,1.2-0.8,1.6c-0.4,0.4-1.1,0.6-1.9,0.6c-0.8,0-1.5-0.2-2-0.7c-0.5-0.4-0.7-1-0.7-1.8v-3.1
				c0-0.7,0.2-1.3,0.7-1.8c0.5-0.5,1.1-0.7,2-0.7s1.5,0.2,1.9,0.7c0.5,0.4,0.7,1,0.7,1.8V55.3z M200.3,52.4c-0.3,0-0.5,0.1-0.7,0.3
				c-0.2,0.2-0.3,0.5-0.3,0.8v0.7c0,0.1,0,0.1,0.1,0.1h1.7c0.1,0,0.1,0,0.1-0.1v-0.7c0-0.3-0.1-0.6-0.3-0.8
				C200.8,52.5,200.6,52.4,200.3,52.4z"/>
			<path d="M194.3,50.9c0.7,0,1.2,0.2,1.6,0.7c0.4,0.4,0.6,1,0.6,1.8v3.1c0,0.7-0.2,1.3-0.6,1.8s-0.9,0.7-1.6,0.7
				c-0.5,0-1-0.2-1.4-0.5c0,0,0,0-0.1,0c0,0,0,0,0,0.1v0.2c0,0.1,0,0.1-0.1,0.1c0,0-0.1,0-0.1,0h-1.4c-0.1,0-0.1,0-0.1,0
				c0,0,0-0.1,0-0.1V48.3c0-0.1,0-0.1,0-0.1c0,0,0.1-0.1,0.1-0.1h1.4c0.1,0,0.1,0,0.1,0.1c0,0,0.1,0.1,0.1,0.1v3.1c0,0,0,0.1,0,0.1
				c0,0,0.1,0,0.1-0.1c0.2-0.2,0.4-0.3,0.6-0.4C193.9,50.9,194.1,50.9,194.3,50.9z M194.7,53.4c0-0.3-0.1-0.6-0.3-0.8
				c-0.2-0.2-0.4-0.3-0.7-0.3c-0.2,0-0.4,0.1-0.6,0.2c-0.2,0.2-0.3,0.4-0.3,0.6v3.2c0,0.3,0.1,0.5,0.3,0.6c0.2,0.2,0.4,0.2,0.6,0.2
				c0.3,0,0.5-0.1,0.7-0.3c0.2-0.2,0.3-0.5,0.3-0.8V53.4z"/>
			<path d="M188.8,49.9c-0.3,0-0.6-0.1-0.8-0.3c-0.2-0.2-0.3-0.5-0.3-0.8s0.1-0.6,0.3-0.8c0.2-0.2,0.5-0.3,0.8-0.3
				c0.3,0,0.6,0.1,0.8,0.3c0.2,0.2,0.3,0.5,0.3,0.8s-0.1,0.6-0.3,0.8C189.4,49.8,189.1,49.9,188.8,49.9z M188.1,58.7
				c0,0-0.1,0-0.1,0c0,0,0-0.1,0-0.1v-7.4c0-0.1,0-0.1,0-0.1c0,0,0.1-0.1,0.1-0.1h1.4c0.1,0,0.1,0,0.1,0.1c0,0,0.1,0.1,0.1,0.1v7.4
				c0,0.1,0,0.1-0.1,0.1c0,0-0.1,0-0.1,0H188.1z"/>
			<path d="M182.9,58.7c-0.1,0-0.2-0.1-0.2-0.2l-2.2-10.2l0-0.1c0-0.1,0.1-0.1,0.2-0.1h1.5c0.1,0,0.2,0.1,0.2,0.2l1.3,7.3
				c0,0,0,0,0,0c0,0,0,0,0,0l1.2-7.3c0-0.1,0.1-0.2,0.2-0.2h1.5c0.1,0,0.2,0.1,0.2,0.2l-2.2,10.2c0,0.1-0.1,0.2-0.2,0.2H182.9z"/>
		</g>
	</g>
</g>
</svg>
