<svg width="24" height="24" viewBox="0 0 24 24" fill="none" xmlns="http://www.w3.org/2000/svg">
<g clip-path="url(#clip0_3_2)">
<path d="M20.5 24H4.5C2.567 24 1 22.433 1 20.5V4.5C1 2.567 2.567 1 4.5 1H20.5C22.433 1 24 2.567 24 4.5V20.5C24 22.433 22.433 24 20.5 24Z" fill="#F8F9FA"/>
<path d="M20.5 24H4.5C2.567 24 1 22.433 1 20.5V4.5C1 2.567 2.567 1 4.5 1H20.5C22.433 1 24 2.567 24 4.5V20.5C24 22.433 22.433 24 20.5 24Z" stroke="#E5E5E5"/>
<path d="M11 9C11 9 15 11.9459 15 13C15 14.0541 11 17 11 17" stroke="#808080" stroke-width="1.5" stroke-linecap="round" stroke-linejoin="round"/>
</g>
<defs>
<clipPath id="clip0_3_2">
<rect width="24" height="24" fill="white" transform="matrix(-1 0 0 -1 24 24)"/>
</clipPath>
</defs>
</svg>
