<svg width="24" height="24" viewBox="0 0 24 24" fill="none" xmlns="http://www.w3.org/2000/svg">
<path d="M19 14V18.5M5 18.5V10C5 7.20761 6.63505 4.7971 9 3.67363C9.90926 3.24169 10.9264 3 12 3" stroke="#EB1C24" stroke-width="1.5" stroke-linecap="round" stroke-linejoin="round"/>
<path d="M20.5 18.5H3.5" stroke="#EB1C24" stroke-width="1.5" stroke-linecap="round" stroke-linejoin="round"/>
<path d="M13.5 20.5C13.5 21.3284 12.8284 22 12 22M12 22C11.1716 22 10.5 21.3284 10.5 20.5M12 22V20.5" stroke="#EB1C24" stroke-width="1.5" stroke-linejoin="round"/>
<path d="M14.9653 4.79558C17.0873 4.0722 18.1482 3.71052 18.7189 4.28116C19.2895 4.85181 18.9278 5.91276 18.2045 8.03467L17.7118 9.47965C17.1563 11.1093 16.8785 11.9241 16.4206 11.9915C16.2976 12.0096 16.1701 11.9987 16.0483 11.9596C15.5953 11.8142 15.3559 10.9551 14.8769 9.2369C14.7707 8.85579 14.7176 8.66521 14.5966 8.51965C14.5615 8.47743 14.5226 8.4385 14.4804 8.40338C14.3348 8.28241 14.1442 8.2293 13.7631 8.12307C12.0449 7.64414 11.1858 7.40467 11.0404 6.95168C11.0013 6.82989 10.9904 6.70246 11.0085 6.57936C11.0759 6.12148 11.8908 5.84371 13.5204 5.28817L14.9653 4.79558Z" stroke="#EB1C24" stroke-width="1.5" stroke-linecap="round" stroke-linejoin="round"/>
</svg>
