<svg width="18" height="18" viewBox="0 0 18 18" fill="none" xmlns="http://www.w3.org/2000/svg">
<path d="M10.416 16.0832V6.1665C10.416 4.16303 10.416 3.1613 9.7936 2.5389C9.17119 1.9165 8.16947 1.9165 6.16602 1.9165C4.16254 1.9165 3.16081 1.9165 2.53841 2.5389C1.91602 3.1613 1.91602 4.16303 1.91602 6.1665V11.8332C1.91602 13.8366 1.91602 14.8383 2.53841 15.4608C3.16081 16.0832 4.16254 16.0832 6.16602 16.0832H10.416Z" stroke="#EB1C24" stroke-width="1.0625" stroke-linecap="round"/>
<path d="M5.10482 8.29183H4.39648M7.93815 8.29183H7.22982M5.10482 5.4585H4.39648M5.10482 11.1252H4.39648M7.93815 5.4585H7.22982M7.93815 11.1252H7.22982" stroke="#EB1C24" stroke-width="1.0625" stroke-linecap="round"/>
<path d="M13.6048 11.1248H12.8965M13.6048 8.2915H12.8965" stroke="#EB1C24" stroke-width="1.0625" stroke-linecap="round"/>
<path d="M13.2493 6.1665H10.416V16.0832H13.2493C14.585 16.0832 15.2528 16.0832 15.6677 15.6682C16.0827 15.2533 16.0827 14.5855 16.0827 13.2498V8.99984C16.0827 7.6642 16.0827 6.99637 15.6677 6.58144C15.2528 6.1665 14.585 6.1665 13.2493 6.1665Z" stroke="#EB1C24" stroke-width="1.0625" stroke-linecap="round"/>
</svg>
