<svg width="34" height="34" viewBox="0 0 34 34" fill="none" xmlns="http://www.w3.org/2000/svg">
<path d="M6.7998 0.424805H26C30.1836 0.424805 33.5752 3.81644 33.5752 8V27.2002C33.5751 30.7209 30.7209 33.5752 27.2002 33.5752H6.7998C3.27914 33.5751 0.42491 30.7209 0.424805 27.2002V6.7998C0.42491 3.27914 3.27914 0.42491 6.7998 0.424805Z" fill="#F8F9FA"/>
<path d="M6.7998 0.424805H26C30.1836 0.424805 33.5752 3.81644 33.5752 8V27.2002C33.5751 30.7209 30.7209 33.5752 27.2002 33.5752H6.7998C3.27914 33.5751 0.42491 30.7209 0.424805 27.2002V6.7998C0.42491 3.27914 3.27914 0.42491 6.7998 0.424805Z" stroke="#020202" stroke-width="0.85"/>
<path d="M23.3752 13.459H10.625V17.709C10.625 20.3803 10.625 21.716 11.4549 22.5458C12.2848 23.3757 13.6204 23.3757 16.2917 23.3757H17.7084C20.3797 23.3757 21.7155 23.3757 22.5453 22.5458C23.3752 21.716 23.3752 20.3803 23.3752 17.709V13.459Z" stroke="#020202" stroke-width="1.0625" stroke-linecap="round" stroke-linejoin="round"/>
<path d="M23.3752 13.4583H10.625L11.475 12.325C12.1007 11.4908 12.4135 11.0737 12.8622 10.8493C13.3109 10.625 13.8323 10.625 14.8751 10.625H19.1251C20.1679 10.625 20.6893 10.625 21.1379 10.8493C21.5867 11.0737 21.8995 11.4908 22.5252 12.325L23.3752 13.4583Z" stroke="#020202" stroke-width="1.0625" stroke-linecap="round" stroke-linejoin="round"/>
<path d="M17 20.5423L17 15.9382M19.125 18.7715C18.7072 19.2013 17.5952 20.8965 17 20.8965C16.4047 20.8965 15.2927 19.2013 14.8749 18.7715" stroke="#020202" stroke-width="1.0625" stroke-linecap="round"/>
</svg>
