<svg width="34" height="34" viewBox="0 0 34 34" fill="none" xmlns="http://www.w3.org/2000/svg">
<path d="M6.7998 0.424805H26C30.1836 0.424805 33.5752 3.81644 33.5752 8V27.2002C33.5751 30.7209 30.7209 33.5751 27.2002 33.5752H6.7998C3.27914 33.5751 0.42491 30.7209 0.424805 27.2002V6.7998C0.42491 3.27914 3.27914 0.42491 6.7998 0.424805Z" fill="#F8F9FA"/>
<path d="M6.7998 0.424805H26C30.1836 0.424805 33.5752 3.81644 33.5752 8V27.2002C33.5751 30.7209 30.7209 33.5751 27.2002 33.5752H6.7998C3.27914 33.5751 0.42491 30.7209 0.424805 27.2002V6.7998C0.42491 3.27914 3.27914 0.42491 6.7998 0.424805Z" stroke="#020202" stroke-width="0.85"/>
<path d="M18.2093 11.0109L19.4412 13.495C19.6092 13.8408 20.0572 14.1725 20.435 14.236L22.6679 14.6101C24.0958 14.85 24.4316 15.8944 23.4028 16.9247L21.6669 18.675C21.373 18.9713 21.212 19.543 21.303 19.9522L21.7999 22.1187C22.1919 23.8337 21.289 24.497 19.7842 23.6007L17.6915 22.3516C17.3135 22.1258 16.6905 22.1258 16.3056 22.3516L14.2128 23.6007C12.715 24.497 11.805 23.8265 12.197 22.1187L12.694 19.9522C12.785 19.543 12.624 18.9713 12.33 18.675L10.5942 16.9247C9.5723 15.8944 9.90126 14.85 11.3291 14.6101L13.5619 14.236C13.9328 14.1725 14.3808 13.8408 14.5488 13.495L15.7806 11.0109C16.4526 9.66302 17.5445 9.66302 18.2093 11.0109Z" stroke="#020202" stroke-width="1.0625" stroke-linecap="round"/>
</svg>
