<svg width="34" height="34" viewBox="0 0 34 34" fill="none" xmlns="http://www.w3.org/2000/svg">
<path d="M6.7998 0.424805H26C30.1836 0.424805 33.5752 3.81644 33.5752 8V27.2002C33.5751 30.7209 30.7209 33.5751 27.2002 33.5752H6.7998C3.27914 33.5751 0.42491 30.7209 0.424805 27.2002V6.7998C0.42491 3.27914 3.27914 0.42491 6.7998 0.424805Z" fill="#F8F9FA"/>
<path d="M6.7998 0.424805H26C30.1836 0.424805 33.5752 3.81644 33.5752 8V27.2002C33.5751 30.7209 30.7209 33.5751 27.2002 33.5752H6.7998C3.27914 33.5751 0.42491 30.7209 0.424805 27.2002V6.7998C0.42491 3.27914 3.27914 0.42491 6.7998 0.424805Z" stroke="#020202" stroke-width="0.85"/>
<path d="M22.3125 12.3945L21.8735 19.4956C21.7613 21.3099 21.7053 22.2171 21.2506 22.8693C21.0257 23.1917 20.7362 23.4639 20.4005 23.6684C19.7215 24.082 18.8126 24.082 16.9948 24.082C15.1747 24.082 14.2646 24.082 13.5852 23.6676C13.2492 23.4627 12.9597 23.1901 12.7349 22.8671C12.2803 22.2139 12.2254 21.3054 12.1158 19.4886L11.6875 12.3945" stroke="#020202" stroke-width="1.0625" stroke-linecap="round"/>
<path d="M10.625 12.3971H23.375M19.8728 12.3971L19.3893 11.3996C19.068 10.737 18.9074 10.4057 18.6304 10.199C18.569 10.1532 18.5039 10.1124 18.4358 10.0771C18.129 9.91797 17.7608 9.91797 17.0244 9.91797C16.2696 9.91797 15.8922 9.91797 15.5803 10.0838C15.5112 10.1206 15.4452 10.163 15.3831 10.2106C15.1028 10.4256 14.9463 10.7691 14.6332 11.4559L14.2042 12.3971" stroke="#020202" stroke-width="1.0625" stroke-linecap="round"/>
<path d="M15.2266 20.1875V15.9375" stroke="#020202" stroke-width="1.0625" stroke-linecap="round"/>
<path d="M18.7734 20.1875V15.9375" stroke="#020202" stroke-width="1.0625" stroke-linecap="round"/>
</svg>
