<svg width="20" height="20" viewBox="0 0 20 20" fill="none" xmlns="http://www.w3.org/2000/svg">
<path d="M10.7093 3.51093L11.9412 5.99502C12.1092 6.34081 12.5572 6.67249 12.935 6.73598L15.1679 7.11006C16.5958 7.35002 16.9316 8.39442 15.9028 9.42468L14.1669 11.175C13.873 11.4713 13.712 12.043 13.803 12.4522L14.2999 14.6187C14.6919 16.3337 13.789 16.997 12.2842 16.1007L10.1915 14.8516C9.81346 14.6258 9.19046 14.6258 8.8056 14.8516L6.71278 16.1007C5.21495 16.997 4.30505 16.3265 4.69701 14.6187L5.19395 12.4522C5.28495 12.043 5.12396 11.4713 4.82999 11.175L3.09419 9.42468C2.0723 8.39442 2.40126 7.35002 3.82911 7.11006L6.06187 6.73598C6.43283 6.67249 6.88077 6.34081 7.04875 5.99502L8.2806 3.51093C8.9526 2.16302 10.0445 2.16302 10.7093 3.51093Z" stroke="#020202" stroke-width="1.0625" stroke-linecap="round"/>
</svg>
