<svg width="24" height="24" viewBox="0 0 24 24" fill="none" xmlns="http://www.w3.org/2000/svg">
<path d="M14.0996 22.4273C14.0996 22.5792 14.0393 22.7249 13.9319 22.8323C13.8244 22.9397 13.6788 23 13.5269 23H10.4724C10.3205 23 10.1749 22.9397 10.0675 22.8323C9.96007 22.7249 9.89973 22.5792 9.89973 22.4273C9.89973 22.2754 9.96007 22.1297 10.0675 22.0223C10.1749 21.9149 10.3205 21.8546 10.4724 21.8546H13.5269C13.6788 21.8546 13.8244 21.9149 13.9319 22.0223C14.0393 22.1297 14.0996 22.2754 14.0996 22.4273ZM11.9997 11.5458C12.1884 11.5458 12.373 11.4899 12.53 11.385C12.6869 11.2801 12.8093 11.131 12.8815 10.9566C12.9538 10.7822 12.9727 10.5903 12.9358 10.4051C12.899 10.2199 12.8081 10.0499 12.6746 9.91638C12.5411 9.78289 12.371 9.69198 12.1859 9.65515C12.0007 9.61832 11.8088 9.63722 11.6344 9.70946C11.46 9.78171 11.3109 9.90405 11.206 10.061C11.1011 10.218 11.0451 10.4025 11.0451 10.5913C11.0451 10.8445 11.1457 11.0873 11.3247 11.2663C11.5037 11.4453 11.7465 11.5458 11.9997 11.5458ZM20.9406 15.8793L19.7608 21.1864C19.7121 21.4071 19.6082 21.6118 19.4589 21.7815C19.3096 21.9511 19.1197 22.0801 18.907 22.1564C18.6942 22.2326 18.4656 22.2537 18.2425 22.2176C18.0194 22.1816 17.8091 22.0895 17.6313 21.95L14.9787 19.9456H9.02349L6.36803 21.95C6.19018 22.0902 5.97964 22.1828 5.75617 22.2193C5.53271 22.2557 5.30364 22.2348 5.09047 22.1585C4.87731 22.0821 4.68703 21.9529 4.53751 21.7829C4.38798 21.6128 4.28411 21.4076 4.23565 21.1864L3.05873 15.8793C3.01482 15.6799 3.01701 15.473 3.06514 15.2745C3.11328 15.076 3.20609 14.8911 3.3365 14.7339L6.10459 11.416C6.19024 10.213 6.46335 9.03072 6.91401 7.912C8.12816 4.86901 10.3044 2.95998 11.1836 2.28037C11.4179 2.09863 11.706 2 12.0025 2C12.2991 2 12.5872 2.09863 12.8215 2.28037C13.7006 2.95998 15.8759 4.86901 17.091 7.912C17.5417 9.03072 17.8148 10.213 17.9005 11.416L20.6686 14.7339C20.798 14.8916 20.8897 15.0767 20.9369 15.2752C20.984 15.4737 20.9853 15.6803 20.9406 15.8793ZM9.16094 18.8001H14.8384C16.9316 15.1291 17.3316 11.6098 16.0248 8.33676C14.8842 5.47322 12.7461 3.67205 12.118 3.18238C12.0843 3.15575 12.0426 3.14126 11.9997 3.14126C11.9567 3.14126 11.915 3.15575 11.8813 3.18238C11.2532 3.66823 9.11321 5.47322 7.97448 8.33676C6.66775 11.6098 7.06769 15.1291 9.16094 18.8001ZM8.08616 19.2201C6.94074 17.1689 6.28212 15.1539 6.11795 13.1886L4.21656 15.467C4.19786 15.4893 4.18453 15.5156 4.17758 15.5439C4.17063 15.5722 4.17025 15.6017 4.17647 15.6302L5.3572 20.9411C5.36422 20.9727 5.37918 21.0021 5.40066 21.0263C5.42215 21.0506 5.44945 21.069 5.48001 21.0798C5.51056 21.0906 5.54336 21.0934 5.57531 21.088C5.60726 21.0826 5.63732 21.0692 5.66265 21.049L5.67505 21.0385L8.08616 19.2201ZM19.7856 15.467L17.8871 13.1886C17.7229 15.1539 17.0662 17.1689 15.9189 19.2201L18.3271 21.0337L18.3395 21.0442C18.3649 21.0644 18.3949 21.0778 18.4269 21.0832C18.4588 21.0886 18.4916 21.0858 18.5222 21.075C18.5527 21.0642 18.58 21.0458 18.6015 21.0216C18.623 20.9973 18.638 20.968 18.645 20.9363L19.8267 15.6302C19.8324 15.6014 19.8314 15.5718 19.8238 15.5435C19.8162 15.5152 19.8021 15.489 19.7828 15.467H19.7856Z" fill="#808080" stroke="#808080" stroke-width="0.25"/>
</svg>
