<svg width="17" height="17" viewBox="0 0 17 17" fill="none" xmlns="http://www.w3.org/2000/svg">
<path d="M10.9991 5.04156C10.9991 2.74043 9.13368 0.875 6.83257 0.875C4.53145 0.875 2.66602 2.74043 2.66602 5.04156C2.66602 7.34266 4.53145 9.20811 6.83257 9.20811C9.13368 9.20811 10.9991 7.34266 10.9991 5.04156Z" stroke="#808080" stroke-width="1.5" stroke-linecap="round"/>
<path d="M1 15.0412C1 11.8196 3.61161 9.20801 6.83318 9.20801C7.89565 9.20801 8.89179 9.49208 9.74977 9.9884" stroke="#808080" stroke-width="1.5" stroke-linecap="round"/>
<path d="M13.5865 10.4632L14.0998 11.4982C14.1698 11.6423 14.3564 11.7804 14.5138 11.8069L15.4441 11.9628C16.0391 12.0628 16.179 12.4979 15.7504 12.9273L15.0272 13.6564C14.9047 13.7799 14.8376 14.0181 14.8755 14.1886L15.0826 15.0914C15.2459 15.8058 14.8697 16.0822 14.2427 15.7088L13.3707 15.1884C13.2132 15.0943 12.9537 15.0943 12.7933 15.1884L11.9213 15.7088C11.2973 16.0822 10.9181 15.8029 11.0814 15.0914L11.2885 14.1886C11.3264 14.0181 11.2593 13.7799 11.1368 13.6564L10.4136 12.9273C9.98779 12.4979 10.1249 12.0628 10.7199 11.9628L11.6501 11.8069C11.8047 11.7804 11.9913 11.6423 12.0613 11.4982L12.5746 10.4632C12.8546 9.90158 13.3095 9.90158 13.5865 10.4632Z" stroke="#808080" stroke-width="1.5" stroke-linecap="round"/>
</svg>
