<svg width="20" height="20" viewBox="0 0 20 20" fill="none" xmlns="http://www.w3.org/2000/svg">
<path d="M17.5 5.83398H2.5V10.834C2.5 13.9767 2.5 15.5481 3.47631 16.5243C4.45262 17.5007 6.02397 17.5007 9.16667 17.5007H10.8333C13.976 17.5007 15.5474 17.5007 16.5237 16.5243C17.5 15.5481 17.5 13.9767 17.5 10.834V5.83398Z" stroke="#020202" stroke-width="1.0625" stroke-linecap="round" stroke-linejoin="round"/>
<path d="M17.5 5.83333H2.5L3.5 4.5C4.23607 3.51858 4.6041 3.02787 5.13197 2.76393C5.65983 2.5 6.27322 2.5 7.5 2.5H12.5C13.7267 2.5 14.3402 2.5 14.868 2.76393C15.3959 3.02787 15.7639 3.51858 16.5 4.5L17.5 5.83333Z" stroke="#020202" stroke-width="1.0625" stroke-linecap="round" stroke-linejoin="round"/>
<path d="M10 14.1673L10 8.75065M12.5 12.084C12.0085 12.5897 10.7003 14.584 10 14.584C9.29975 14.584 7.9915 12.5897 7.5 12.084" stroke="#020202" stroke-width="1.0625" stroke-linecap="round"/>
</svg>
