<svg width="18" height="18" viewBox="0 0 18 18" fill="none" xmlns="http://www.w3.org/2000/svg">
<path d="M11.1243 6.16667C11.1243 4.21066 9.53867 2.625 7.58268 2.625C5.62668 2.625 4.04102 4.21066 4.04102 6.16667C4.04102 8.12266 5.62668 9.70833 7.58268 9.70833C9.53867 9.70833 11.1243 8.12266 11.1243 6.16667Z" stroke="#EB1C24" stroke-width="1.0625" stroke-linecap="round" stroke-linejoin="round"/>
<path d="M2.625 14.6663C2.625 11.9279 4.84492 9.70801 7.58333 9.70801C8.48646 9.70801 9.3332 9.94948 10.0625 10.3714" stroke="#EB1C24" stroke-width="1.0625" stroke-linecap="round" stroke-linejoin="round"/>
<path d="M13.3235 10.7751L13.7598 11.6548C13.8193 11.7773 13.978 11.8947 14.1118 11.9172L14.9025 12.0497C15.4082 12.1347 15.5272 12.5046 15.1629 12.8695L14.5481 13.4893C14.444 13.5943 14.387 13.7968 14.4192 13.9417L14.5952 14.7091C14.734 15.3164 14.4142 15.5513 13.8813 15.2339L13.1401 14.7915C13.0062 14.7115 12.7856 14.7115 12.6493 14.7915L11.9081 15.2339C11.3776 15.5513 11.0553 15.3139 11.1941 14.7091L11.3702 13.9417C11.4024 13.7968 11.3454 13.5943 11.2412 13.4893L10.6265 12.8695C10.2645 12.5046 10.381 12.1347 10.8868 12.0497L11.6775 11.9172C11.8089 11.8947 11.9676 11.7773 12.0271 11.6548L12.4633 10.7751C12.7013 10.2976 13.088 10.2976 13.3235 10.7751Z" stroke="#EB1C24" stroke-width="1.0625" stroke-linecap="round" stroke-linejoin="round"/>
</svg>
